<svg id="Group_2946" data-name="Group 2946" xmlns="http://www.w3.org/2000/svg" viewBox="0 0 2329.452 546.066">
  <defs>
    <style>
      .cls-1 {
        fill: #00aeef;
      }

      .cls-2, .cls-3 {
        fill: #fff;
      }

      .cls-3 {
        fill-rule: evenodd;
      }
    </style>
  </defs>
  <path id="Path_2048" data-name="Path 2048" class="cls-1" d="M546.066,278.815V0H0V546.066H546.066"/>
  <g id="Group_1718" data-name="Group 1718" transform="translate(161.892 68.098)">
    <path id="Path_2049" data-name="Path 2049" class="cls-2" d="M13.885,14.3H233.6V190.326c0,61.673-48.825,110.5-110.5,110.5-60.388,0-110.5-50.11-110.5-110.5V14.3ZM35.727,81.113c2.57,14.134,25.7,29.552,39.831,0L56.285,63.125ZM39.582,61.84v8.994L49.861,61.84Zm30.837-1.285H60.14l10.279,8.994ZM35.727,160.774c2.57,14.134,25.7,29.552,39.831,0L56.285,142.786Zm3.855-20.558v8.994l10.279-8.994Zm30.837,0H60.14l10.279,8.994Zm102.789,20.558c2.57,14.134,25.7,29.552,39.831,0l-19.273-17.988Zm3.854-20.558v8.994l10.279-8.994Zm32.122,0H198.9l10.279,8.994Zm-35.976-59.1c2.57,14.134,25.7,29.552,39.831,0L193.765,63.125Zm3.854-19.273v8.994l10.279-8.994Zm32.122-1.285H198.9l10.279,8.994ZM132.092,36.143a7.709,7.709,0,0,0-15.418,0Zm-16.7,6.424V54.131h16.7V42.567ZM106.395,61.84V81.113h14.134V72.119h6.424v8.994h14.134V61.84Zm39.831,26.982-2.57-3.855H103.825l-2.57,3.855ZM60.14,216.023V226.3h127.2V216.023Zm47.54,48.825-1.285-7.709L92.261,252V246.86H85.837v6.424l-2.57,2.57,2.57,5.14,3.855-2.57Zm1.285,5.139-17.988,5.139-3.854-3.854-3.855,3.854,2.57,2.57-1.285,6.424,6.424,1.285,1.285-3.854,16.7-3.855Zm30.837-6.424,17.988-5.139,3.855,3.854,3.854-3.854-3.854-3.855,1.285-6.424L156.5,246.86,155.22,252l-14.133,3.854Zm-1.285,5.14-1.285,6.424,16.7,5.139,1.285,3.855,6.424-1.285-1.285-6.425,2.57-2.57-3.855-3.855-3.855,3.855Zm-25.7,1.285c0,5.139,5.139,10.279,10.279,10.279a10.134,10.134,0,0,0,10.279-10.279v-2.57l-2.57,1.285v3.854H116.674v-5.139H114.1ZM107.68,252c0,7.709,5.139,12.849,11.564,15.418v3.855h7.709v-3.855c6.424-1.285,11.564-7.709,11.564-15.418,0-8.994-6.424-15.418-15.418-15.418C115.389,236.581,107.68,244.29,107.68,252ZM148.8,181.332,97.4,201.89v10.279h12.849V199.32h5.14v12.849h14.133V199.32h5.139v12.849H147.51V181.332Zm0-26.982L97.4,174.908v20.558L148.8,174.908Zm0-25.7L97.4,149.21v20.558L148.8,149.21Zm0-26.982L97.4,122.228v20.558L148.8,122.228Zm-50.11-7.709v23.127L150.08,96.531v-2.57Z" transform="translate(-12.6 101.337)"/>
    <rect id="Rectangle_1914" data-name="Rectangle 1914" class="cls-2" width="123.347" height="11.564" transform="translate(50.11 95.08)"/>
    <rect id="Rectangle_1915" data-name="Rectangle 1915" class="cls-2" width="5.139" height="8.994" transform="translate(98.934 246.693)"/>
    <rect id="Rectangle_1916" data-name="Rectangle 1916" class="cls-2" width="5.139" height="8.994" transform="translate(119.492 245.408)"/>
    <rect id="Rectangle_1917" data-name="Rectangle 1917" class="cls-2" width="5.139" height="8.994" transform="translate(98.934 272.39)"/>
    <rect id="Rectangle_1918" data-name="Rectangle 1918" class="cls-2" width="5.139" height="8.994" transform="translate(119.492 271.106)"/>
    <rect id="Rectangle_1919" data-name="Rectangle 1919" class="cls-2" width="5.139" height="8.994" transform="translate(98.934 219.711)"/>
    <rect id="Rectangle_1920" data-name="Rectangle 1920" class="cls-2" width="5.139" height="8.994" transform="translate(119.492 219.711)"/>
    <path id="Path_2050" data-name="Path 2050" class="cls-2" d="M89.876,62.627V24.081s-6.424-8.994-16.7-6.424c-14.133,2.57-11.564,19.273-1.285,39.831l2.57,6.424H59.039l-7.709-16.7s-7.709-16.7-1.285-25.7c0,0-3.855-3.855-11.564-2.57-8.994,1.285-12.849,10.279-7.709,19.273,0,0,2.57,5.139,10.279,16.7L47.475,65.2H32.057L19.208,45.924s-11.564-16.7,2.57-29.552c0,0,7.709-8.994,24.412-6.424,0,0,7.709,1.285,10.279,5.139,0,0,5.139-6.424,17.988-5.139,0,0,12.849,0,21.843,8.994,7.709-7.709,21.843-8.994,21.843-8.994,12.849-1.285,17.988,5.139,17.988,5.139,2.57-3.855,10.279-5.139,10.279-5.139,17.988-6.424,25.7,3.855,25.7,3.855,12.849,12.849,2.57,29.552,2.57,29.552L161.828,62.627H146.409l6.424-10.279c7.709-11.564,10.279-16.7,10.279-16.7,5.139-8.994,1.285-17.988-7.709-19.273-7.709-1.285-11.564,2.57-11.564,2.57,6.424,8.994-1.285,25.7-1.285,25.7l-7.709,16.7H119.427l3.854-6.424C133.561,34.36,136.131,17.657,122,15.087c-11.564-2.57-16.7,6.424-16.7,6.424V61.342H89.876Z" transform="translate(12.913 24.743)"/>
    <path id="Path_2051" data-name="Path 2051" class="cls-2" d="M33.249,37.839a5.527,5.527,0,0,0,5.139,5.139c2.57,0,3.855-2.57,3.855-5.139s-2.57-5.14-3.855-5.14C35.818,33.985,33.249,36.555,33.249,37.839Zm-12.849,0c0,2.57,2.57,5.139,3.854,5.139a5.527,5.527,0,0,0,5.14-5.139,5.527,5.527,0,0,0-5.14-5.14C21.685,33.985,20.4,35.27,20.4,37.839ZM34.533,48.118l-1.285-2.57-1.285-2.57-1.285,2.57-2.57,2.57h6.424Z" transform="translate(79.819 319.352)"/>
    <path id="Path_2052" data-name="Path 2052" class="cls-2" d="M49.652,16.864H39.373V5.3H30.379V16.864H20.1v8.994H30.379V36.137h8.994V25.858H49.652Z" transform="translate(76.265 -5.3)"/>
    <rect id="Rectangle_1921" data-name="Rectangle 1921" class="cls-2" width="5.139" height="8.994" transform="translate(98.934 246.693)"/>
    <rect id="Rectangle_1922" data-name="Rectangle 1922" class="cls-2" width="5.139" height="8.994" transform="translate(119.492 245.408)"/>
    <rect id="Rectangle_1923" data-name="Rectangle 1923" class="cls-2" width="5.139" height="8.994" transform="translate(98.934 272.39)"/>
    <rect id="Rectangle_1924" data-name="Rectangle 1924" class="cls-2" width="5.139" height="8.994" transform="translate(119.492 271.106)"/>
    <rect id="Rectangle_1925" data-name="Rectangle 1925" class="cls-2" width="5.139" height="8.994" transform="translate(98.934 219.711)"/>
    <rect id="Rectangle_1926" data-name="Rectangle 1926" class="cls-2" width="5.139" height="8.994" transform="translate(119.492 219.711)"/>
    <path id="Path_2053" data-name="Path 2053" class="cls-2" d="M33.249,37.839a5.527,5.527,0,0,0,5.139,5.139c2.57,0,3.855-2.57,3.855-5.139s-2.57-5.14-3.855-5.14C35.818,33.985,33.249,36.555,33.249,37.839Zm-12.849,0c0,2.57,2.57,5.139,3.854,5.139a5.527,5.527,0,0,0,5.14-5.139,5.527,5.527,0,0,0-5.14-5.14C21.685,33.985,20.4,35.27,20.4,37.839ZM34.533,48.118l-1.285-2.57-1.285-2.57-1.285,2.57-2.57,2.57h6.424Z" transform="translate(79.819 319.352)"/>
  </g>
  <path id="Path_2054" data-name="Path 2054" d="M1542.649,0h-1511V546.066H1815.038s-2.569-119.492,0-267.251V267.251c-2.569-147.759,0-267.251,0-267.251" transform="translate(514.414)"/>
  <path id="Path_2055" data-name="Path 2055" class="cls-3" d="M97.84,77.979c-2.57,1.285-8.994,2.57-14.134,2.57-14.133,0-21.843-10.279-21.843-23.127s7.709-23.127,21.843-23.127c5.14,0,8.994,0,14.134,3.855L99.125,27.87c-5.14-1.285-10.279-2.57-14.133-2.57C63.149,25.3,50.3,38.149,50.3,59.991S64.433,92.113,84.991,92.113a46.189,46.189,0,0,0,14.133-2.57Z" transform="translate(595.985 299.77)"/>
  <path id="Path_2056" data-name="Path 2056" class="cls-3" d="M67.249,50.912c0-7.709,3.855-14.134,11.564-14.134S90.376,43.2,90.376,50.912s-2.57,16.7-11.564,16.7-11.564-8.994-11.564-16.7M54.4,52.2c0,14.134,8.994,24.412,24.412,24.412S103.225,66.331,103.225,52.2c0-15.418-10.279-25.7-24.412-25.7C64.679,27.785,54.4,36.779,54.4,52.2" transform="translate(644.564 313.988)"/>
  <path id="Path_2057" data-name="Path 2057" class="cls-3" d="M58.9,75.425H71.749V52.3c0-6.424,1.285-15.418,10.279-15.418,7.709,0,7.709,7.709,7.709,14.134v25.7h12.849V44.588c0-10.279-5.139-17.988-15.418-17.988a18.316,18.316,0,0,0-15.419,7.709h0V27.885H60.185v47.54Z" transform="translate(697.883 315.173)"/>
  <path id="Path_2058" data-name="Path 2058" class="cls-3" d="M97.691,27.885C93.837,26.6,91.268,26.6,86.128,26.6,71.994,26.6,63,36.879,63,51.012s7.709,24.412,23.128,24.412c5.14,0,8.994,0,12.849-1.285V63.861c-2.57,1.285-6.425,2.57-8.994,2.57-8.994,0-12.849-6.424-12.849-15.418s5.14-15.418,12.849-15.418c3.854,0,6.424,1.285,7.709,1.285Z" transform="translate(746.462 315.173)"/>
  <path id="Path_2059" data-name="Path 2059" class="cls-3" d="M106.03,61.391c-5.139,2.57-10.279,5.14-15.418,5.14-7.709,0-12.849-3.855-12.849-11.564h32.122c0-16.7-5.14-28.267-21.843-28.267C73.909,26.7,66.2,38.264,66.2,51.112c0,15.418,8.994,24.412,24.412,24.412a35.566,35.566,0,0,0,16.7-3.854V61.391ZM76.479,45.973c0-6.424,3.855-11.564,10.279-11.564s8.994,5.14,10.279,11.564Z" transform="translate(784.378 316.358)"/>
  <rect id="Rectangle_1927" data-name="Rectangle 1927" class="cls-2" width="12.849" height="69.382" transform="translate(903.257 321.215)"/>
  <rect id="Rectangle_1928" data-name="Rectangle 1928" class="cls-2" width="12.849" height="69.382" transform="translate(927.669 321.215)"/>
  <path id="Path_2060" data-name="Path 2060" class="cls-3" d="M86.748,50.912c0-7.709,3.854-14.134,11.564-14.134s11.564,6.424,11.564,14.134-2.57,16.7-11.564,16.7c-10.279,0-11.564-8.994-11.564-16.7M73.9,52.2c0,14.134,8.994,24.412,24.412,24.412S122.724,66.331,122.724,52.2c0-15.418-10.279-25.7-24.412-25.7C84.179,27.785,73.9,36.779,73.9,52.2" transform="translate(875.612 313.988)"/>
  <path id="Path_2061" data-name="Path 2061" class="cls-3" d="M114.791,94.382h11.564V25H113.507V51.982h0c-3.855-3.855-7.709-6.424-14.133-6.424C85.239,45.558,80.1,57.122,80.1,69.97s5.139,24.412,19.274,24.412c5.139,0,10.278-1.285,14.133-6.424h0v6.424ZM92.949,69.97c0-6.424,2.57-15.418,10.279-15.418s11.564,8.994,11.564,15.418-2.569,15.418-10.279,15.418c-8.994,0-11.564-8.994-11.564-15.418" transform="translate(949.074 296.215)"/>
  <path id="Path_2062" data-name="Path 2062" class="cls-3" d="M137.939,77.979c-2.57,1.285-8.994,2.57-14.133,2.57-14.134,0-21.843-10.279-21.843-23.127s7.71-23.127,21.843-23.127c5.139,0,8.994,0,14.133,3.855l1.285-10.279c-5.14-1.285-10.279-2.57-14.133-2.57C103.248,25.3,90.4,38.149,90.4,59.991s14.133,32.122,34.691,32.122a46.188,46.188,0,0,0,14.133-2.57Z" transform="translate(1071.114 299.77)"/>
  <path id="Path_2063" data-name="Path 2063" class="cls-3" d="M107.349,50.912c0-7.709,3.854-14.134,11.563-14.134s11.564,6.424,11.564,14.134-2.57,16.7-11.564,16.7-11.563-8.994-11.563-16.7M94.5,52.2c0,14.134,8.994,24.412,24.412,24.412S143.325,66.331,143.325,52.2c0-15.418-10.28-25.7-24.413-25.7C106.064,27.785,94.5,36.779,94.5,52.2" transform="translate(1119.693 313.988)"/>
  <path id="Path_2064" data-name="Path 2064" class="cls-3" d="M99.1,75.425h12.848V57.437c0-6.424,0-19.273,10.279-19.273,2.57,0,3.854,0,5.139,1.285V26.6h-3.855c-7.709,0-12.848,7.709-12.848,11.564h0V27.885H100.384v47.54Z" transform="translate(1174.197 315.173)"/>
  <path id="Path_2065" data-name="Path 2065" class="cls-3" d="M145.385,27.885H132.537V51.012c0,6.424-1.285,15.418-10.28,15.418-7.709,0-7.709-7.709-7.709-14.134V26.6H101.7V57.437c0,10.279,5.139,17.988,15.418,17.988a18.315,18.315,0,0,0,15.418-7.709h0V74.14H144.1V27.885Z" transform="translate(1205.003 315.173)"/>
  <path id="Path_2066" data-name="Path 2066" class="cls-3" d="M106.1,94.382h12.848V71.255c0-6.424,2.57-15.418,10.279-15.418s7.709,7.709,7.709,14.134v25.7h12.849V63.546c0-10.279-5.14-17.988-15.419-17.988a18.316,18.316,0,0,0-15.418,7.709h0V46.843H107.384v47.54Zm10.279-56.534a4.1,4.1,0,0,1,3.855-3.855c1.285,0,3.854,1.285,6.424,1.285,2.569,1.285,3.854,1.285,7.709,1.285,5.139,0,8.994-5.139,8.994-11.564h-5.14q0,3.855-3.855,3.855c-2.57,0-3.855-1.285-6.424-2.57S122.8,25,120.233,25c-5.14,0-8.994,5.14-8.994,11.564h5.139Z" transform="translate(1257.137 296.215)"/>
  <path id="Path_2067" data-name="Path 2067" class="cls-3" d="M121.764,60.106c0-7.709,7.709-7.709,14.134-7.709h5.139c0,3.854,0,6.424-2.57,10.279-1.284,2.57-5.139,3.855-8.994,3.855-5.139-1.285-7.709-2.57-7.709-6.424M115.34,39.549c3.854-2.57,8.993-5.139,14.133-5.139,7.71,0,10.279,2.57,10.279,10.279h-6.424c-5.14,0-11.564,0-15.419,2.57-5.139,2.57-7.709,6.424-7.709,14.134,0,8.994,7.709,14.133,16.7,14.133,5.139,0,11.564-2.57,14.134-7.709h0v7.709h10.278V47.258c0-14.133-6.423-20.558-20.557-20.558a39.56,39.56,0,0,0-16.7,3.855Z" transform="translate(1305.716 316.358)"/>
  <path id="Path_2068" data-name="Path 2068" class="cls-3" d="M49.6,81.643H62.449L67.588,67.51h25.7l5.14,14.134h14.133L88.146,17.4H74.012Zm41.116-25.7H72.728l8.994-26.982h0Z" transform="translate(587.691 206.166)"/>
  <path id="Path_2069" data-name="Path 2069" class="cls-3" d="M68.633,18.7H54.5L72.488,68.81c0,5.139-2.57,8.994-7.709,8.994-2.57,0-5.139,0-6.424-1.285L57.07,85.513c2.57,1.285,5.139,1.285,8.994,1.285,12.849,0,15.419-10.279,19.273-20.558L103.325,18.7H90.476L78.912,53.391h0Z" transform="translate(645.749 221.569)"/>
  <path id="Path_2070" data-name="Path 2070" class="cls-3" d="M102.485,19.885H89.636V43.012c0,6.424-1.285,15.418-10.279,15.418-7.709,0-7.709-7.709-7.709-14.133V18.6H58.8V49.437c0,10.279,5.139,17.988,15.418,17.988a18.316,18.316,0,0,0,15.418-7.709h0V66.14H101.2V19.885Z" transform="translate(696.698 220.384)"/>
  <path id="Path_2071" data-name="Path 2071" class="cls-3" d="M63.2,67.425H76.049V44.3c0-6.424,1.285-15.418,10.279-15.418,7.709,0,7.709,7.709,7.709,14.134v25.7h12.848V36.588c0-10.279-5.139-17.988-15.418-17.988a18.316,18.316,0,0,0-15.418,7.709h0V19.885H64.485v47.54Z" transform="translate(748.832 220.384)"/>
  <path id="Path_2072" data-name="Path 2072" class="cls-3" d="M74.909,63.855c0,8.994,5.139,15.418,15.418,15.418,3.855,0,6.425,0,8.994-1.285V67.71c-1.286,1.285-3.855,1.285-5.14,1.285-5.14,0-5.14-3.855-5.14-7.709V39.443H99.322V30.449H89.042V17.6L76.194,21.455v8.994H67.2v8.994h8.994V63.855Z" transform="translate(796.226 208.535)"/>
  <path id="Path_2073" data-name="Path 2073" class="cls-3" d="M81.564,54.476c0-7.709,7.709-7.709,14.133-7.709h5.139c0,3.855,0,7.709-2.57,10.279-1.285,2.57-5.14,3.854-8.994,3.854-5.14-1.285-7.709-2.57-7.709-6.424M75.14,33.918c3.855-2.57,8.994-5.14,14.133-5.14,7.71,0,10.279,2.57,10.279,10.279H93.127c-5.139,0-11.563,0-15.418,2.57C72.57,44.2,70,48.052,70,54.476,70,63.47,77.709,68.61,86.7,68.61c5.139,0,11.564-2.57,14.133-7.709h0v6.424h10.279V39.058c0-14.133-6.424-20.558-20.557-20.558a39.563,39.563,0,0,0-16.7,3.855Z" transform="translate(829.402 219.199)"/>
  <path id="Path_2074" data-name="Path 2074" class="cls-3" d="M74.1,67.425H86.949V44.3c0-6.424,1.285-15.418,8.994-15.418,6.424,0,6.424,6.424,6.424,10.279V67.425h12.849V44.3c0-6.424,1.285-15.418,8.994-15.418,6.424,0,6.424,6.424,6.424,10.279V67.425h12.849V36.588c0-10.279-3.855-17.988-15.418-17.988-5.14,0-11.564,2.57-14.134,7.709C111.361,19.885,106.222,18.6,99.8,18.6c-5.139,0-10.279,2.57-14.133,7.709h0V19.885H74.1Z" transform="translate(877.982 220.384)"/>
  <path id="Path_2075" data-name="Path 2075" class="cls-3" d="M80.4,28.664H93.249V17.1H80.4Zm0,56.534H93.249V37.658H80.4Z" transform="translate(952.628 202.611)"/>
  <path id="Path_2076" data-name="Path 2076" class="cls-3" d="M121.931,53.391c-5.14,2.57-10.279,5.139-15.418,5.139-7.709,0-12.848-3.855-12.848-11.564h32.121c0-16.7-5.139-28.267-21.843-28.267C89.809,18.7,82.1,30.264,82.1,43.112c0,15.418,8.994,24.412,24.412,24.412a35.567,35.567,0,0,0,16.7-3.855V53.391ZM93.664,37.973c0-6.424,3.854-11.564,10.278-11.564s8.994,5.14,10.28,11.564Z" transform="translate(972.771 221.569)"/>
  <path id="Path_2077" data-name="Path 2077" class="cls-3" d="M86.2,67.425H99.048V44.3c0-6.424,2.57-15.418,10.279-15.418s7.709,7.709,7.709,14.134v25.7h12.848V36.588c0-10.279-5.139-17.988-15.419-17.988a18.315,18.315,0,0,0-15.418,7.709h0V19.885H87.485v47.54Z" transform="translate(1021.35 220.384)"/>
  <path id="Path_2078" data-name="Path 2078" class="cls-3" d="M97.909,63.855c0,8.994,5.139,15.418,15.418,15.418,3.854,0,6.424,0,8.994-1.285V67.71c-1.285,1.285-3.855,1.285-5.14,1.285-5.139,0-5.139-3.855-5.139-7.709V39.443h10.279V30.449H112.043V17.6L99.194,21.455v8.994H90.2v8.994h8.994V63.855Z" transform="translate(1068.744 208.535)"/>
  <path id="Path_2079" data-name="Path 2079" class="cls-3" d="M105.849,42.912c0-6.424,3.854-14.133,11.564-14.133s11.564,6.424,11.564,14.133-2.57,16.7-11.564,16.7-11.564-8.994-11.564-16.7M93,44.2c0,14.134,8.994,24.412,24.412,24.412S141.825,58.331,141.825,44.2c0-15.418-10.279-25.7-24.412-25.7C103.279,19.785,93,28.779,93,44.2" transform="translate(1101.92 219.199)"/>
  <path id="Path_2080" data-name="Path 2080" class="cls-3" d="M133.892,86.383h11.564V17H132.606V43.982h0c-3.854-5.14-7.709-6.424-14.133-6.424C104.34,37.558,99.2,49.122,99.2,61.97s5.14,24.412,19.273,24.412c5.139,0,10.279-1.285,14.133-6.424h0v6.424ZM112.049,61.97c0-6.424,2.57-15.418,10.279-15.418s11.564,8.994,11.564,15.418-2.57,15.418-10.279,15.418c-8.994,0-11.564-8.994-11.564-15.418" transform="translate(1175.382 201.426)"/>
  <path id="Path_2081" data-name="Path 2081" class="cls-3" d="M143.43,53.391c-5.139,2.57-10.279,5.139-15.418,5.139-7.709,0-12.849-3.855-12.849-11.564h32.122c0-16.7-5.139-28.267-21.842-28.267-14.134,0-21.843,11.564-21.843,24.412,0,15.418,8.994,24.412,24.412,24.412a35.568,35.568,0,0,0,16.7-3.855V53.391ZM113.879,37.973c0-6.424,3.855-11.564,10.279-11.564s8.993,5.14,10.279,11.564Z" transform="translate(1227.516 221.569)"/>
  <path id="Path_2082" data-name="Path 2082" class="cls-3" d="M109.2,81.643h12.849l5.139-14.134h25.7l5.139,14.134h14.134L147.746,17.4H133.612Zm41.116-25.7H132.328l8.995-26.982h0Z" transform="translate(1293.868 206.166)"/>
  <path id="Path_2083" data-name="Path 2083" class="cls-3" d="M163.539,70.079c-2.57,1.285-8.994,2.57-14.133,2.57-14.133,0-21.843-10.279-21.843-23.127s7.709-23.128,21.843-23.128c5.139,0,8.993,1.285,14.133,3.855l1.285-10.279c-5.139-1.285-10.279-2.57-14.134-2.57C128.848,17.4,116,30.249,116,52.091s14.133,32.121,34.691,32.121a46.192,46.192,0,0,0,14.134-2.57Z" transform="translate(1374.438 206.166)"/>
  <path id="Path_2084" data-name="Path 2084" class="cls-3" d="M131.764,41.727c0-6.424,3.854-14.133,11.563-14.133s11.564,6.424,11.564,14.133-2.57,16.7-11.564,16.7-11.563-8.994-11.563-16.7M120.2,44.3c0,14.133,8.994,24.412,24.412,24.412S169.025,58.431,169.025,44.3c0-15.418-10.279-25.7-24.412-25.7S120.2,27.594,120.2,44.3" transform="translate(1424.203 220.384)"/>
  <path id="Path_2085" data-name="Path 2085" class="cls-3" d="M124.7,67.425h12.849V49.437c0-6.424,0-19.273,10.28-19.273,2.57,0,3.854,0,5.139,1.285V18.6h-3.854c-7.709,0-12.849,7.709-12.849,11.564h0V19.885H125.985v47.54Z" transform="translate(1477.521 220.384)"/>
  <path id="Path_2086" data-name="Path 2086" class="cls-3" d="M171.086,19.885H158.237V43.012c0,6.424-1.285,15.418-10.28,15.418-7.709,0-7.709-7.709-7.709-14.133V18.6H127.4V49.437c0,10.279,5.139,17.988,15.418,17.988a18.314,18.314,0,0,0,15.417-7.709h0V66.14H169.8V19.885Z" transform="translate(1509.512 220.384)"/>
  <path id="Path_2087" data-name="Path 2087" class="cls-3" d="M131.7,85.2h12.849V62.07c0-6.424,1.284-15.418,10.278-15.418,7.709,0,7.709,7.709,7.709,14.134v25.7h12.85V54.361c0-10.279-5.14-17.988-15.418-17.988a18.315,18.315,0,0,0-15.418,7.709h0V37.658H132.985V85.2Zm10.278-55.249a4.1,4.1,0,0,1,3.855-3.854c1.285,0,3.856,1.285,6.425,1.285,2.569,1.285,3.855,1.285,7.709,1.285,5.139,0,8.993-5.139,8.993-11.564h-5.139c0,2.57-1.286,5.139-3.854,5.139s-3.854-1.285-6.425-2.57-5.14-1.285-7.71-1.285c-5.139,0-8.993,5.139-8.993,11.564Z" transform="translate(1560.462 202.611)"/>
  <path id="Path_2088" data-name="Path 2088" class="cls-3" d="M147.364,52.106c0-7.709,7.709-7.709,14.132-7.709h5.14c0,3.855,0,7.709-2.57,10.279-1.285,2.57-5.139,3.855-8.993,3.855-5.14,0-7.709-2.57-7.709-6.424M140.94,31.549c3.855-2.57,8.993-5.139,14.134-5.139,7.709,0,10.279,2.57,10.279,10.279h-6.424c-5.14,0-11.564,0-15.418,2.57-5.14,2.57-7.71,6.424-7.71,14.134,0,8.994,7.71,14.133,16.7,14.133,5.14,0,11.564-2.57,14.134-7.709h0v7.709h10.279V39.258c0-14.133-6.423-20.558-20.558-20.558a39.566,39.566,0,0,0-16.7,3.855Z" transform="translate(1609.041 221.569)"/>
  <path id="Path_2089" data-name="Path 2089" class="cls-3" d="M94.679,60.106c0-7.709,7.709-7.709,14.134-7.709h5.139c0,3.854,0,6.424-2.569,10.279-1.285,2.57-5.139,3.855-8.994,3.855-3.854-1.285-7.709-2.57-7.709-6.424M89.539,39.549c3.855-2.57,8.994-5.139,14.133-5.139,7.709,0,10.279,2.57,10.279,10.279h-6.424c-5.14,0-11.564,0-15.418,2.57C86.97,49.827,84.4,53.682,84.4,61.391c0,8.994,7.709,14.133,16.7,14.133,5.139,0,11.563-2.57,14.133-7.709h0v7.709h10.279V47.258c0-14.133-6.425-20.558-20.558-20.558a39.56,39.56,0,0,0-16.7,3.855Z" transform="translate(1000.023 316.358)"/>
  <path id="Path_2090" data-name="Path 2090" class="cls-2" d="M243.025,10.639c7.709,2.57,14.134,5.139,20.557,7.709L286.71,28.628c3.854,2.57,8.994,3.855,11.564,5.139a31.924,31.924,0,0,0,10.278,1.285c8.995,0,15.42-2.57,20.559-8.994,3.854-3.855,6.423-10.279,10.279-19.273H363.8c-3.854,19.273-11.564,35.976-21.844,51.394C331.68,72.313,314.977,80.022,294.42,80.022c-6.423,0-11.564-1.285-17.989-2.57a89.234,89.234,0,0,1-16.7-6.424l-16.7-7.709Q219.9,53.682,216.043,51.755c-2.569-1.285-6.424-1.285-10.279-1.285a27.443,27.443,0,0,0-21.843,10.279c-2.57,3.855-5.14,10.279-7.71,17.988H151.8q5.78-26.982,15.418-42.4Q186.49,5.5,221.182,5.5c7.709,1.285,15.418,2.57,21.843,5.139" transform="translate(1798.619 65.167)"/>
  <path id="Path_2091" data-name="Path 2091" class="cls-2" d="M149.6,160.674h0C149.6,78.443,212.559,14.2,297.358,14.2c57.82,0,93.8,24.412,119.493,57.819l-57.82,44.97c-16.7-20.558-34.69-33.406-61.674-33.406-39.83,0-66.811,33.406-66.811,74.522v1.285c0,42.4,28.267,74.522,66.811,74.522,29.553,0,46.256-14.133,62.958-34.691l57.819,41.116c-26.982,35.976-61.672,62.958-124.631,62.958-78.377,2.57-143.9-59.1-143.9-142.62" transform="translate(1772.552 168.25)"/>
</svg>
