<svg id="Group_2950" data-name="Group 2950" xmlns="http://www.w3.org/2000/svg" viewBox="0 0 157.925 36.891">
  <defs>
    <style>
      .cls-1 {
        fill: #e1251b;
      }

      .cls-2 {
        fill: #fff;
      }

      .cls-2, .cls-3 {
        fill-rule: evenodd;
      }

      .cls-3, .cls-4 {
        fill: #19171c;
      }
    </style>
  </defs>
  <path id="Path_2113" data-name="Path 2113" class="cls-1" d="M.233,2.123C10.06-.481,18.112-.126,28.295.466A161.247,161.247,0,0,1,27.11,36.934C2.127,36.934-.951,16.095.233,2.123" transform="translate(-0.02 -0.043)"/>
  <path id="Path_2114" data-name="Path 2114" class="cls-2" d="M17.226,9.283h0a1.058,1.058,0,0,1-.947.474c-.355,0-2.486.237-2.723-.237-.118-.355.71-.71,1.184-.947h0c0-.118-.118-.118-.237-.118a.435.435,0,0,0-.355.118c-.118,0-.355.237-.592.355a1.683,1.683,0,0,1-.71.237.9.9,0,0,1-.592-.237.578.578,0,0,1-.237-.829.816.816,0,0,1,.474-.592.116.116,0,0,1-.118.118c-.118.118,0,.474,0,.474a.648.648,0,0,0,.592.474,2.828,2.828,0,0,0,1.066-.237,1.584,1.584,0,0,1,.592-.118c.118,0,.237.118.355.237a.9.9,0,0,0,.237-.474c-.118-.474-1.539.474-2.013.237a.982.982,0,0,1-.355-.947.747.747,0,0,1-.118-.829A6.26,6.26,0,0,1,14.5,5.613c.355-.118.474-.355.947-.355l.237.118-.237-.237a2.262,2.262,0,0,1,.592-1.421l1.066.71a1.708,1.708,0,0,1,1.3-.829l.474,1.184a1.7,1.7,0,0,1,1.658.237c-1.066,1.421-.355,3.2.237,4.618l-.829.118a5.888,5.888,0,0,1,.118,2.486h-.592A4.473,4.473,0,0,1,19,14.73l-.947-.237c-.355,1.184.118,2.25,1.658,3.315,1.066.71,1.066,1.421,1.421,2.368.118.237.118.355.474.355.118,0,.829-.237.355-1.066-.829-1.421-2.6-3.2-1.658-4.973a1.145,1.145,0,0,1,1.421-.592h.118a1.326,1.326,0,0,1,1.539.355c1.184,1.066.592,2.723.947,3.67l.237.592c-1.658-.71-1.776-1.184-2.723-2.6a1.7,1.7,0,0,1-.237-.355h0c-.474.947,2.131,2.96,2.131,4.618a2.071,2.071,0,0,1-2.723,2.131c-.71.947.592.355,1.066.829,1.184,1.066.355,3.2-1.421,4.263A5.714,5.714,0,0,0,19,28.465c-.355.355-.474.71-1.184.592l-.474.355a.164.164,0,0,1-.237,0,2.2,2.2,0,0,1-.237-.829l-.237.237c-.118.118-.237,0-.355-.118a2.015,2.015,0,0,1-.118-.829l-.237.237c-.118.118-.118,0-.118-.118,0-.237-.118-.592-.118-.947.118-1.776,1.539-1.3,2.96-1.184a.9.9,0,0,0,.592-.237,1,1,0,0,0-.118-1.658,5.03,5.03,0,0,1-2.013-1.184c-.71-.71-.947-1.776-.237-3.434v-.118a3.184,3.184,0,0,0-.829,2.842h-.118a2.822,2.822,0,0,1-1.3-.71h0c-.118,0-.118.118-.237.118h0c.237.474.829.829.118,1.3a12.126,12.126,0,0,1-4.144,1.3.9.9,0,0,0-.592.237c-.474.237-.592.592-1.184.355l-.474.355H7.872a1.756,1.756,0,0,1-.118-.829l-.237.237c-.237.118-.237,0-.237-.118,0-.237-.118-.592,0-.829l-.355.237c-.118.118-.118,0-.118-.118a2.943,2.943,0,0,1,.118-.947c.355-1.776,1.658-.947,3.078-.71.355.118.71-.118,1.421-.355a2.588,2.588,0,0,0,.592-.355,2.118,2.118,0,0,1-.118-1.894c.355-1.184,1.776-1.421,2.842-1.421-.829-1.066-2.368-.355-3.434-2.25a11.318,11.318,0,0,0,3.315-1.3l-1.3.474A7.747,7.747,0,0,1,8.7,15.2c-.474-.237-.947-.355-1.184-.71-.118-.118-.118-.355-.237-.474a5.372,5.372,0,0,1-.947.237c-.237,0-.355-.118-.592-.355H5.149c-.118,0-.118,0-.118-.118.118-.237.118-.474.355-.71H5.03c-.237,0-.237-.118-.118-.237a2.477,2.477,0,0,1,.474-.71H5.03a.116.116,0,0,1-.118-.118A1.578,1.578,0,0,1,5.5,11.3a1.211,1.211,0,0,1,1.539-.355,3.139,3.139,0,0,1,.71.592c.237.237.474.71.71.947.118-.118.474.118.829.118v-.592c-.118-.592-.237-2.25-1.066-2.842C7.754,8.81,7.4,8.81,7.517,8.1l-.474-.355a.164.164,0,0,1,0-.237,3.942,3.942,0,0,1,.71-.355l-.237-.237c-.237-.118-.118-.118,0-.237a2.2,2.2,0,0,1,.829-.237L8.109,6.2c-.118-.118,0-.118,0-.118a1.711,1.711,0,0,1,.829-.237c1.776-.118,1.421,1.3,1.539,2.842,0,.592.829,1.421,1.3,1.894a11.518,11.518,0,0,0-1.421,2.131l-.118.118h.118l.118-.118a7.068,7.068,0,0,1,2.6-2.013c1.539-.592,2.842-.355,3.434-.71a.116.116,0,0,0,.118-.118,1.4,1.4,0,0,0,.592-.592m-6.867,3.552Zm6.749-6.157a1.4,1.4,0,0,0-1.066-.592c-.118,0-.592.71-.237.592A4.71,4.71,0,0,1,17.108,6.678Z" transform="translate(0.865 0.612)"/>
  <path id="Path_2115" data-name="Path 2115" class="cls-3" d="M36.8,27.815H35.139l.237-.71c.237-.592.474-1.658.592-2.013h0l.829,2.723m1.421,1.894L36.323,24.5h-.71L33.6,29.71h.829l.474-1.3h2.131l.474,1.3Z" transform="translate(6.159 4.458)"/>
  <path id="Path_2116" data-name="Path 2116" class="cls-4" d="M39.786,29.71V27.342a13.219,13.219,0,0,0,1.184-1.894l.592-.947h-.829l-.474.947c-.355.592-.71,1.421-.829,1.539l-1.3-2.486H37.3l1.776,3.078v2.25h.71" transform="translate(6.84 4.458)"/>
  <path id="Path_2117" data-name="Path 2117" class="cls-4" d="M44.634,24.5v2.6c0,1.184-.118,2.131-1.421,2.131-1.184,0-1.3-1.066-1.3-2.131V24.5H41.2v2.6c0,1.184.118,2.723,1.894,2.723,2.013,0,2.25-1.421,2.25-2.842V24.5h-.71" transform="translate(7.558 4.458)"/>
  <path id="Path_2118" data-name="Path 2118" class="cls-3" d="M49.981,29.728v-5.21h-.71v1.539c0,1.3.118,2.131.118,2.6h0L46.429,24.4H45.6v5.21h.71V28.071c0-1.421-.118-2.368-.118-2.723h0l2.368,3.315c.237.355.592.947.71.947h.71" transform="translate(8.368 4.44)"/>
  <path id="Path_2119" data-name="Path 2119" class="cls-4" d="M53.726,25.21V24.5H49.7v.71h1.658v4.5h.71v-4.5h1.658" transform="translate(9.122 4.458)"/>
  <path id="Path_2120" data-name="Path 2120" class="cls-3" d="M56.3,27.815H54.639l.237-.71c.237-.592.474-1.658.592-2.013h0l.829,2.723m1.421,1.894L55.823,24.5h-.71L53.1,29.71h.829l.474-1.3h2.131l.474,1.3Z" transform="translate(9.748 4.458)"/>
  <path id="Path_2121" data-name="Path 2121" class="cls-3" d="M57.3,29.691h.71l.118-1.3c.118-1.184.237-2.723.237-2.96h0L59.9,29.691H60.5c.237-.592.474-1.184.71-1.658l.237-.71c.237-.71.592-1.658.592-1.776h0l.474,4.263h.71l-.71-5.21H61.8l-.71,1.776-.237.71a9.45,9.45,0,0,0-.592,1.894h0L58.721,24.6h-.829L57.3,29.691" transform="translate(10.521 4.477)"/>
  <rect id="Rectangle_1930" data-name="Rectangle 1930" class="cls-4" width="0.71" height="5.21" transform="translate(74.57 28.958)"/>
  <path id="Path_2122" data-name="Path 2122" class="cls-4" d="M67.442,29.71v-.592H65.31V27.342H67.2V26.75H65.31V25.092h2.013V24.5H64.6v5.21h2.842" transform="translate(11.864 4.458)"/>
  <path id="Path_2123" data-name="Path 2123" class="cls-3" d="M71.981,29.728v-5.21h-.71v1.539c0,1.3.118,2.131.118,2.6h0L68.429,24.4H67.6v5.21h.71V28.071c0-1.421-.118-2.368-.118-2.723h0l2.368,3.315c.237.355.592.947.71.947h.71" transform="translate(12.416 4.44)"/>
  <path id="Path_2124" data-name="Path 2124" class="cls-4" d="M75.507,25.21V24.5H71.6v.71h1.658v4.5h.71v-4.5h1.539" transform="translate(13.152 4.458)"/>
  <path id="Path_2125" data-name="Path 2125" class="cls-3" d="M76.01,27.106c0-1.184.592-2.131,1.776-2.131a1.91,1.91,0,0,1,1.776,2.131c0,1.184-.592,2.131-1.776,2.131a1.989,1.989,0,0,1-1.776-2.131m-.71.118a2.466,2.466,0,0,0,2.368,2.723,2.611,2.611,0,0,0,2.723-2.723A2.466,2.466,0,0,0,78.023,24.5,2.491,2.491,0,0,0,75.3,27.225Z" transform="translate(13.833 4.457)"/>
  <path id="Path_2126" data-name="Path 2126" class="cls-3" d="M47.472,23.8V20.013H42.5a14.89,14.89,0,0,0-4.5.592v-.118l9.117-13.5V3.2h-13.5V6.989h3.789A18.019,18.019,0,0,0,42.735,6.4v.118L33.5,20.013l.118,3.789H47.472" transform="translate(6.141 0.538)"/>
  <path id="Path_2127" data-name="Path 2127" class="cls-3" d="M55.588,18.256a4.094,4.094,0,0,1-2.842,1.421c-.592,0-.947-.474-.947-1.184a1.729,1.729,0,0,1,1.421-1.776l1.066-.355c.474-.237,1.066-.355,1.421-.592v2.486m4.262,4.736V13.4c0-3.315-.829-5.8-4.5-5.8a14.484,14.484,0,0,0-6.986,2.013,22.814,22.814,0,0,0,.118,2.842,13.67,13.67,0,0,1,5.565-1.539c1.421,0,1.421,1.3,1.421,2.131v.237l-2.131.592c-3.434.947-6.157,2.013-6.157,5.447,0,2.842,1.776,4.026,3.907,4.026a7.306,7.306,0,0,0,4.618-2.368l.118,2.013Z" transform="translate(8.68 1.348)"/>
  <path id="Path_2128" data-name="Path 2128" class="cls-4" d="M71.027,7.7h-.71c-1.894,0-3.789,1.3-4.736,3.789h-.118V7.937H61.2V22.974h4.5V14.8c1.184-2.131,2.486-3.078,3.907-3.078a3.3,3.3,0,0,1,1.184.118A30.951,30.951,0,0,0,71.027,7.7" transform="translate(11.238 1.366)"/>
  <path id="Path_2129" data-name="Path 2129" class="cls-3" d="M78.088,18.256a4.094,4.094,0,0,1-2.842,1.421c-.592,0-.947-.474-.947-1.184a1.729,1.729,0,0,1,1.421-1.776l1.066-.355c.474-.237,1.066-.355,1.421-.592v2.486m4.381,4.736V13.4c0-3.315-.829-5.8-4.5-5.8A14.484,14.484,0,0,0,71.1,9.613a22.817,22.817,0,0,0,.118,2.842,13.67,13.67,0,0,1,5.565-1.539c1.421,0,1.421,1.3,1.421,2.131v.237l-2.25.592c-3.434.947-6.157,2.013-6.157,5.447,0,2.842,1.776,4.026,3.907,4.026a7.306,7.306,0,0,0,4.618-2.368l.118,2.013Z" transform="translate(12.821 1.348)"/>
  <path id="Path_2130" data-name="Path 2130" class="cls-3" d="M90.059,15.415c2.013,0,2.486-1.066,2.486-2.131,0-1.658-1.066-2.25-2.6-2.25-1.184,0-2.368.592-2.368,2.013a2.282,2.282,0,0,0,2.486,2.368m3.552,10.656c0-1.539-2.6-1.421-4.973-1.421-1.3.829-1.776,1.658-1.776,2.013,0,1.184,1.066,1.539,2.96,1.539,2.96,0,3.789-.947,3.789-2.131Zm5.21-18.116a33.533,33.533,0,0,1-.237,3.552H96.453a2.776,2.776,0,0,1,.237,1.421c0,3.2-3.078,5.8-7.341,5.8h-.474a5.136,5.136,0,0,0-1.3,2.013c0,1.421,10.064-1.3,10.064,4.855,0,3.907-4.381,5.92-8.288,5.92-5.091,0-6.749-1.421-6.749-3.907,0-1.539,1.421-2.6,2.486-3.552a2.335,2.335,0,0,1-1.894-2.486c0-1.3,1.658-2.96,2.368-3.67-1.539-.829-2.25-2.486-2.25-4.618,0-3.078,2.842-5.683,7.223-5.683a7.349,7.349,0,0,1,3.789.829A7.317,7.317,0,0,1,97.4,7.955h1.421Z" transform="translate(15.177 1.348)"/>
  <path id="Path_2131" data-name="Path 2131" class="cls-3" d="M101.318,15.278c0-2.723,1.184-4.263,2.96-4.263,2.013,0,3.2,2.131,3.2,4.736,0,2.723-1.184,4.263-2.96,4.263-2.013,0-3.2-2.131-3.2-4.736m-4.618.237c0,4.5,2.131,7.815,7.223,7.815a7.883,7.883,0,0,0,8.17-7.815c0-4.5-2.131-7.815-7.223-7.815A7.674,7.674,0,0,0,96.7,15.515Z" transform="translate(17.771 1.366)"/>
  <path id="Path_2132" data-name="Path 2132" class="cls-3" d="M122.7,22.956V19.64h-2.842a19.639,19.639,0,0,0-4.381.474V20l6.986-8.643L122.348,7.8h-11.13v3.315h2.6a17.86,17.86,0,0,0,4.026-.474v.118L111.1,19.285l.118,3.552H122.7" transform="translate(20.421 1.385)"/>
  <path id="Path_2133" data-name="Path 2133" class="cls-3" d="M130.988,18.256a4.094,4.094,0,0,1-2.842,1.421c-.592,0-.947-.474-.947-1.184a1.729,1.729,0,0,1,1.421-1.776l1.066-.355c.474-.237,1.066-.355,1.421-.592v2.486m4.263,4.736V13.4c0-3.315-.829-5.8-4.5-5.8a14.484,14.484,0,0,0-6.986,2.013A22.817,22.817,0,0,0,124,12.455a13.67,13.67,0,0,1,5.565-1.539c1.421,0,1.421,1.3,1.421,2.131v.237l-2.131.592c-3.434.947-6.157,2.013-6.157,5.447,0,2.842,1.776,4.026,3.907,4.026a7.306,7.306,0,0,0,4.618-2.368l.118,2.013Z" transform="translate(22.556 1.348)"/>
</svg>
