<svg id="Group_2951" data-name="Group 2951" xmlns="http://www.w3.org/2000/svg" viewBox="0 0 186.708 36.891">
  <defs>
    <style>
      .cls-1 {
        fill: #bf0043;
      }

      .cls-2, .cls-3 {
        fill: #fff;
      }

      .cls-3 {
        fill-rule: evenodd;
      }
    </style>
  </defs>
  <path id="Path_3094" data-name="Path 3094" class="cls-1" d="M0,0H186.708V36.891H0Z" transform="translate(0 0)"/>
  <g id="Group_2674" data-name="Group 2674" transform="translate(14.874 2.064)">
    <g id="Group_2671" data-name="Group 2671" transform="translate(0 0)">
      <path id="Path_3060" data-name="Path 3060" class="cls-2" d="M9.558,31.728H8.6L9.132,0" transform="translate(-6.258)"/>
      <path id="Path_3061" data-name="Path 3061" class="cls-2" d="M8.458,31.379H7.5L7.926,5.4" transform="translate(-6.329 0.35)"/>
      <path id="Path_3062" data-name="Path 3062" class="cls-2" d="M10.658,31.379H9.7L10.232,5.4" transform="translate(-6.186 0.35)"/>
      <path id="Path_3063" data-name="Path 3063" class="cls-2" d="M16.258,31.379H15.3L15.726,5.4" transform="translate(-5.824 0.35)"/>
      <path id="Path_3064" data-name="Path 3064" class="cls-2" d="M11.758,31.139H10.8L11.332,9.1" transform="translate(-6.115 0.589)"/>
      <path id="Path_3065" data-name="Path 3065" class="cls-3" d="M7.358,31.139H6.4L6.932,9.1" transform="translate(-6.4 0.589)"/>
      <path id="Path_3066" data-name="Path 3066" class="cls-2" d="M17.358,31.139H16.4L16.826,9.1" transform="translate(-5.753 0.589)"/>
      <path id="Path_3067" data-name="Path 3067" class="cls-2" d="M15.158,31.139H14.2L14.626,9.1" transform="translate(-5.895 0.589)"/>
      <path id="Path_3068" data-name="Path 3068" class="cls-2" d="M14.065,31.023H13L13.532,10.9" transform="translate(-5.973 0.705)"/>
      <path id="Path_3069" data-name="Path 3069" class="cls-2" d="M18.458,31.023H17.5L17.926,10.9" transform="translate(-5.682 0.705)"/>
      <path id="Path_3070" data-name="Path 3070" class="cls-2" d="M19.558,30.79H18.6l.426-16.29" transform="translate(-5.611 0.938)"/>
      <path id="Path_3071" data-name="Path 3071" class="cls-2" d="M22.858,31.728H21.9L22.432,0" transform="translate(-5.397)"/>
      <path id="Path_3072" data-name="Path 3072" class="cls-2" d="M23.958,31.379H23L23.532,5.4" transform="translate(-5.326 0.35)"/>
      <path id="Path_3073" data-name="Path 3073" class="cls-2" d="M21.758,31.379H20.8L21.226,5.4" transform="translate(-5.468 0.35)"/>
      <path id="Path_3074" data-name="Path 3074" class="cls-2" d="M25.058,31.139H24.1L24.632,9.1" transform="translate(-5.255 0.589)"/>
      <path id="Path_3075" data-name="Path 3075" class="cls-2" d="M20.658,31.139H19.7L20.126,9.1" transform="translate(-5.539 0.589)"/>
      <path id="Path_3076" data-name="Path 3076" class="cls-2" d="M12.858,30.79H11.9l.532-16.29" transform="translate(-6.044 0.938)"/>
    </g>
    <g id="Group_2672" data-name="Group 2672" transform="translate(105.173 12.409)">
      <path id="Path_3077" data-name="Path 3077" class="cls-2" d="M13.27,25.835a4.706,4.706,0,0,0,2.113.7c1.479,0,2.465-1.268,2.465-2.958a2.816,2.816,0,0,0-.775-1.972l-1.761-1.479a1.815,1.815,0,0,1-.7-1.338.852.852,0,0,1,.845-.845c.564,0,.986.423,1.338,1.2h.352v-1.62a2.9,2.9,0,0,0-1.691-.423A2.345,2.345,0,0,0,13.2,19.636a2.627,2.627,0,0,0,.986,2.254l1.761,1.479a1.527,1.527,0,0,1,.352.986c0,.775-.423,1.338-1.057,1.338s-1.268-.493-1.691-1.62H13.2" transform="translate(-13.2 -16.959)"/>
      <path id="Path_3078" data-name="Path 3078" class="cls-2" d="M23.036,20.188l.7,2.536H22.4m-.916,3.663.634-2.677h1.831l.775,2.677h1.9L24.022,17.3h-1.2L20.5,26.387Z" transform="translate(-15.358 -17.018)"/>
      <path id="Path_3079" data-name="Path 3079" class="cls-2" d="M31.786,26.387v-6.48l3.311,6.48h.986V17.3H35.1v5.142L32.491,17.3H30.8v9.087" transform="translate(-18.403 -17.018)"/>
      <path id="Path_3080" data-name="Path 3080" class="cls-2" d="M43.322,26.387V18.216h1.691V17.3H39.8v.916h1.691v8.171" transform="translate(-21.063 -17.018)"/>
      <rect id="Rectangle_2010" data-name="Rectangle 2010" class="cls-2" width="1.831" height="9.087" transform="translate(24.935 0.282)"/>
      <path id="Path_3081" data-name="Path 3081" class="cls-2" d="M54.965,20.188l.7,2.536H54.331m-.845,3.663.634-2.677h1.831l.775,2.677h1.9L56.022,17.3h-1.2L52.5,26.387Z" transform="translate(-24.817 -17.018)"/>
      <path id="Path_3082" data-name="Path 3082" class="cls-2" d="M65.833,21.408v.845h.634v3.17a.935.935,0,0,1-.7.211c-1.057,0-1.62-1.409-1.62-4.156,0-2.606.845-3.733,1.691-3.733.7,0,1.127.423,1.479,1.2h.352v-1.62a5.352,5.352,0,0,0-1.831-.423c-1.972,0-3.733,1.972-3.733,4.579a5.414,5.414,0,0,0,1.2,3.733,3.316,3.316,0,0,0,2.465,1.2A3.528,3.528,0,0,0,68.3,25.141a.744.744,0,0,1-.141-.352V21.267" transform="translate(-27.655 -16.9)"/>
      <path id="Path_3083" data-name="Path 3083" class="cls-2" d="M75.751,25.735c-1.057,0-1.479-1.409-1.479-4.438,0-1.55.07-2.536.493-3.1a.962.962,0,0,1,.7-.423c.564,0,.986.352,1.2,1.127a12.973,12.973,0,0,1,.352,3.17,14.765,14.765,0,0,1-.211,2.606c-.211.7-.7,1.057-1.057,1.057m.07.775c1.479,0,3.029-1.9,3.029-4.79,0-2.465-1.338-4.719-3.381-4.719-1.62,0-3.17,2.043-3.17,4.79a6.274,6.274,0,0,0,1.2,3.592A2.961,2.961,0,0,0,75.822,26.509Z" transform="translate(-30.671 -16.93)"/>
    </g>
    <g id="Group_2673" data-name="Group 2673" transform="translate(35.298 12.409)">
      <path id="Path_3084" data-name="Path 3084" class="cls-2" d="M5.424,7.819a2.022,2.022,0,0,1-1.55.845A1.662,1.662,0,0,1,2.395,7.326a8.542,8.542,0,0,1-.352-2.395,8.422,8.422,0,0,1,.423-3.24C2.747,1.2,3.24.775,3.592.775c.775,0,1.2.423,1.55,1.268h.352V.423A2.6,2.6,0,0,0,3.874,0C1.55,0,0,1.831,0,4.79,0,7.678,1.691,9.509,3.8,9.509a2.816,2.816,0,0,0,1.972-.775" transform="translate(0 0.07)"/>
      <path id="Path_3085" data-name="Path 3085" class="cls-2" d="M12.752,8.7c-1.057,0-1.479-1.409-1.479-4.438,0-1.55.07-2.536.493-3.1a.962.962,0,0,1,.7-.423c.564,0,.986.352,1.2,1.127a12.264,12.264,0,0,1,.352,3.1,14.765,14.765,0,0,1-.211,2.606c-.211.7-.634,1.127-1.057,1.127m.07.7c1.479,0,3.029-1.9,3.029-4.79C15.851,2.154,14.512-.1,12.47-.1,10.85-.1,9.3,1.943,9.3,4.69a6.274,6.274,0,0,0,1.2,3.592A2.762,2.762,0,0,0,12.822,9.409Z" transform="translate(-2.749 0.1)"/>
      <path id="Path_3086" data-name="Path 3086" class="cls-2" d="M21.557,9.387V2.906l3.24,6.48h1.057V.3H24.8V5.442L22.261.3H20.5V9.387" transform="translate(-6.06 -0.018)"/>
      <path id="Path_3087" data-name="Path 3087" class="cls-2" d="M35.424,7.819a2.022,2.022,0,0,1-1.55.845,1.662,1.662,0,0,1-1.479-1.338A8.043,8.043,0,0,1,32.043,5a8.422,8.422,0,0,1,.423-3.24c.282-.493.775-.916,1.127-.916.775,0,1.2.423,1.55,1.268h.352V.423A3.1,3.1,0,0,0,33.8,0C31.55,0,30,1.831,30,4.79c0,2.888,1.691,4.719,3.8,4.719a2.816,2.816,0,0,0,1.972-.775" transform="translate(-8.868 0.07)"/>
      <path id="Path_3088" data-name="Path 3088" class="cls-2" d="M44.2,9.387V8.4H41.731V3.752H44.2V2.836H41.731V1.216H44.2V.3H39.9V9.387" transform="translate(-11.795 -0.018)"/>
      <path id="Path_3089" data-name="Path 3089" class="cls-2" d="M52.2,9.387V8.4H49.731V.3H47.9V9.387" transform="translate(-14.16 -0.018)"/>
      <path id="Path_3090" data-name="Path 3090" class="cls-2" d="M59.7,9.387V8.4H57.231V.3H55.4V9.387" transform="translate(-16.377 -0.018)"/>
      <path id="Path_3091" data-name="Path 3091" class="cls-2" d="M65.781,8.7C64.724,8.7,64.3,7.3,64.3,4.267c0-1.55.07-2.536.493-3.1a.962.962,0,0,1,.7-.423c.564,0,.986.352,1.2,1.127a12.265,12.265,0,0,1,.352,3.1,14.763,14.763,0,0,1-.211,2.606A1.264,1.264,0,0,1,65.781,8.7m.141.7c1.479,0,3.029-1.9,3.029-4.79C68.951,2.154,67.612-.1,65.57-.1c-1.62,0-3.17,2.043-3.17,4.79a6.274,6.274,0,0,0,1.2,3.592A2.6,2.6,0,0,0,65.922,9.409Z" transform="translate(-18.446 0.1)"/>
      <path id="Path_3092" data-name="Path 3092" class="cls-2" d="M80.2,1.145a1.56,1.56,0,0,1,1.409.7,5.025,5.025,0,0,1,.775,3.17,4.416,4.416,0,0,1-.564,2.465A1.946,1.946,0,0,1,80.2,8.541m.352.845a3.579,3.579,0,0,0,2.536-1.2,4.592,4.592,0,0,0,1.2-3.452A4.179,4.179,0,0,0,80.2.3H78.3V9.387Z" transform="translate(-23.146 -0.018)"/>
      <path id="Path_3093" data-name="Path 3093" class="cls-2" d="M93.1,9.387V8.4H90.561V3.752H93.1V2.836H90.561V1.216H93.1V.3H88.8V9.387" transform="translate(-26.25 -0.018)"/>
    </g>
  </g>
</svg>
