<svg id="Group_2952" data-name="Group 2952" xmlns="http://www.w3.org/2000/svg" viewBox="0 0 88.038 36.891">
  <defs>
    <style>
      .cls-1 {
        fill: #003df6;
      }

      .cls-2 {
        fill: #fff;
      }
    </style>
  </defs>
  <rect id="Rectangle_1902" data-name="Rectangle 1902" class="cls-1" width="88.038" height="36.891" transform="translate(0 0)"/>
  <rect id="Rectangle_1903" data-name="Rectangle 1903" class="cls-2" width="0.211" height="12.192" transform="translate(22.573 12.318)"/>
  <path id="Path_1958" data-name="Path 1958" class="cls-2" d="M592.133,219.9h1.179v8.823h-1.263v-6.864l-2.716,3.411H589.1l-2.737-3.411v6.864H585.1V219.9h1.2l2.927,3.622Z" transform="translate(-557.684 -206.087)"/>
  <path id="Path_1959" data-name="Path 1959" class="cls-2" d="M637.243,224.738l-1.432-3.2-1.327,3.2ZM635.39,219.6h.884l3.959,8.865h-1.284l-1.179-2.611H634l-1.095,2.611H631.6Z" transform="translate(-594.393 -205.85)"/>
  <path id="Path_1960" data-name="Path 1960" class="cls-2" d="M683.143,221.016h-1.579v6.549h1.621a6.7,6.7,0,0,0,1.474-.126,3.1,3.1,0,0,0,.884-.337,2.8,2.8,0,0,0,.632-.484,3.237,3.237,0,0,0,.927-2.4,2.976,2.976,0,0,0-.969-2.316,2.8,2.8,0,0,0-.821-.547,2.92,2.92,0,0,0-.863-.274,9.206,9.206,0,0,0-1.306-.063M680.3,228.7v-8.8h2.969a6.257,6.257,0,0,1,2.843.547,4,4,0,0,1,1.663,1.579,4.309,4.309,0,0,1,.611,2.3,4.312,4.312,0,0,1-2.8,4.043,4.583,4.583,0,0,1-.905.253,12.8,12.8,0,0,1-1.6.063H680.3Z" transform="translate(-632.838 -206.087)"/>
  <path id="Path_1961" data-name="Path 1961" class="cls-2" d="M731.142,220.974h-.379v2.779h.484a3.784,3.784,0,0,0,1.326-.168,1.157,1.157,0,0,0,.547-.505,1.5,1.5,0,0,0,.19-.758,1.374,1.374,0,0,0-.211-.758,1.224,1.224,0,0,0-.632-.484,6.088,6.088,0,0,0-1.327-.105m-1.642,7.749V219.9h2.211a3.328,3.328,0,0,1,2.127.653,2.2,2.2,0,0,1,.779,1.79,2.2,2.2,0,0,1-1.474,2.169,4.485,4.485,0,0,1,.821.758,14.948,14.948,0,0,1,1.137,1.663c.316.505.547.884.737,1.137l.463.632h-1.5l-.379-.59c-.021-.021-.042-.063-.084-.105l-.253-.337-.4-.653-.421-.695a6.736,6.736,0,0,0-.716-.863,3.273,3.273,0,0,0-.59-.463,2.092,2.092,0,0,0-.884-.147h-.337v3.832H729.5Z" transform="translate(-671.679 -206.087)"/>
  <rect id="Rectangle_1904" data-name="Rectangle 1904" class="cls-2" width="1.263" height="8.823" transform="translate(66.265 13.813)"/>
  <path id="Path_1962" data-name="Path 1962" class="cls-2" d="M790.843,221.016h-1.579v6.549h1.621a6.7,6.7,0,0,0,1.474-.126,3.1,3.1,0,0,0,.884-.337,2.806,2.806,0,0,0,.632-.484,3.237,3.237,0,0,0,.927-2.4,2.976,2.976,0,0,0-.969-2.316,2.8,2.8,0,0,0-.821-.547,2.92,2.92,0,0,0-.863-.274,9.206,9.206,0,0,0-1.306-.063M788,228.7v-8.8h2.969a6.257,6.257,0,0,1,2.843.547,4.005,4.005,0,0,1,1.663,1.579,4.31,4.31,0,0,1,.611,2.3,4.312,4.312,0,0,1-2.8,4.043,4.584,4.584,0,0,1-.905.253,12.8,12.8,0,0,1-1.6.063H788Z" transform="translate(-717.86 -206.087)"/>
  <path id="Path_1963" data-name="Path 1963" class="cls-2" d="M511.875,222.1h-7.307a.168.168,0,0,0,0,.337h7.307a.181.181,0,0,0,.168-.168.166.166,0,0,0-.168-.168" transform="translate(-493.977 -207.824)"/>
  <path id="Path_1964" data-name="Path 1964" class="cls-2" d="M511.875,226.2h-7.307a.181.181,0,0,0-.168.168.166.166,0,0,0,.168.168h7.307a.168.168,0,0,0,0-.337" transform="translate(-493.977 -211.06)"/>
  <path id="Path_1965" data-name="Path 1965" class="cls-2" d="M504.468,224.537h.379a.168.168,0,0,0,0-.337h-.379a.168.168,0,1,0,0,.337" transform="translate(-493.898 -209.481)"/>
  <path id="Path_1966" data-name="Path 1966" class="cls-2" d="M537.847,224.1h-.379a.168.168,0,0,0,0,.337h.379a.168.168,0,0,0,0-.337" transform="translate(-519.949 -209.402)"/>
  <path id="Path_1967" data-name="Path 1967" class="cls-2" d="M520.827,224.537a.168.168,0,0,0,0-.337h-.758a.168.168,0,1,0,0,.337Z" transform="translate(-506.213 -209.481)"/>
  <path id="Path_1968" data-name="Path 1968" class="cls-2" d="M511.1,224.189l.568.19.569-.19-.569-.19Z" transform="translate(-499.266 -209.324)"/>
  <path id="Path_1969" data-name="Path 1969" class="cls-2" d="M528.5,224.189l.568.19.548-.19-.548-.19Z" transform="translate(-513.002 -209.324)"/>
  <path id="Path_1970" data-name="Path 1970" class="cls-2" d="M534.979,224.189a.19.19,0,1,0-.189.19.189.189,0,0,0,.189-.19" transform="translate(-517.818 -209.324)"/>
  <path id="Path_1971" data-name="Path 1971" class="cls-2" d="M526.279,224.189a.19.19,0,1,0-.19.19.189.189,0,0,0,.19-.19" transform="translate(-510.95 -209.324)"/>
  <path id="Path_1972" data-name="Path 1972" class="cls-2" d="M517.679,224.189a.19.19,0,1,0-.19.19.189.189,0,0,0,.19-.19" transform="translate(-504.161 -209.324)"/>
  <path id="Path_1973" data-name="Path 1973" class="cls-2" d="M508.879,224.189a.19.19,0,1,0-.19.19.189.189,0,0,0,.19-.19" transform="translate(-497.214 -209.324)"/>
  <path id="Path_1974" data-name="Path 1974" class="cls-2" d="M510.655,212.8a.637.637,0,0,0-.505.316c-.021,0-.105-.021-.147-.021-.105,0-.168,0-.211.042a.353.353,0,0,1,.189.295.316.316,0,0,1-.274-.19.453.453,0,0,0-.042.211v.084a.558.558,0,0,0-.295.147.4.4,0,0,0,.295.147v.063c0,.105,0,.168.042.211a.373.373,0,0,1,.358-.19h.042v.042c0,.189-.084.358-.316.358a.308.308,0,0,1-.274-.19.3.3,0,0,0,.042-.126.211.211,0,0,0-.421,0,.3.3,0,0,0,.042.126.347.347,0,0,1-.274.19c-.232,0-.316-.168-.316-.358v-.042h.042a.4.4,0,0,1,.358.19.453.453,0,0,0,.042-.211v-.063a.558.558,0,0,0,.295-.147.4.4,0,0,0-.295-.147v-.084a.453.453,0,0,0-.042-.211.353.353,0,0,1-.295.19.388.388,0,0,1,.19-.295.453.453,0,0,0-.211-.042h-.063a.558.558,0,0,0-.147-.295.4.4,0,0,0-.147.295h-.084c-.105,0-.169,0-.211.042a.353.353,0,0,1,.19.295.315.315,0,0,1-.274-.19.453.453,0,0,0-.042.211v.084a.558.558,0,0,0-.295.147.4.4,0,0,0,.295.147v.063c0,.105,0,.168.042.211a.373.373,0,0,1,.358-.19h.042v.042c0,.189-.084.358-.316.358a.308.308,0,0,1-.274-.19.3.3,0,0,0,.042-.126.211.211,0,0,0-.211-.211h-.042a.205.205,0,0,0-.168.211.3.3,0,0,0,.042.126.347.347,0,0,1-.274.19c-.232,0-.316-.168-.316-.358v-.042h.042a.4.4,0,0,1,.358.19.453.453,0,0,0,.042-.211v-.063a.558.558,0,0,0,.295-.147.4.4,0,0,0-.295-.147v-.084a.453.453,0,0,0-.042-.211.353.353,0,0,1-.295.19.388.388,0,0,1,.19-.295.453.453,0,0,0-.211-.042h-.063a.558.558,0,0,0-.147-.295.4.4,0,0,0-.147.295h-.084c-.105,0-.168,0-.211.042a.353.353,0,0,1,.19.295.316.316,0,0,1-.274-.19.453.453,0,0,0-.042.211v.084a.558.558,0,0,0-.295.147.4.4,0,0,0,.295.147v.063c0,.105,0,.168.042.211a.373.373,0,0,1,.358-.19h.042v.042c0,.189-.084.358-.316.358a.308.308,0,0,1-.274-.19.3.3,0,0,0,.042-.126.211.211,0,0,0-.211-.211.226.226,0,0,0-.211.211.3.3,0,0,0,.042.126.347.347,0,0,1-.274.19c-.232,0-.316-.168-.316-.358v-.042h.042a.4.4,0,0,1,.358.19.454.454,0,0,0,.042-.211v-.063a.558.558,0,0,0,.295-.147.4.4,0,0,0-.295-.147v-.084a.454.454,0,0,0-.042-.211.348.348,0,0,1-.274.19.388.388,0,0,1,.19-.295.453.453,0,0,0-.211-.042H505.1a.558.558,0,0,0-.147-.295.4.4,0,0,0-.147.295h-.063c-.105,0-.168,0-.211.042a.353.353,0,0,1,.189.295.388.388,0,0,1-.295-.19.453.453,0,0,0-.042.211v.084a.558.558,0,0,0-.295.147.4.4,0,0,0,.295.147v.063a.453.453,0,0,0,.042.211.373.373,0,0,1,.358-.19h.042v.042c0,.189-.084.358-.316.358a.308.308,0,0,1-.274-.19.3.3,0,0,0,.042-.126.211.211,0,0,0-.211-.211.216.216,0,0,0-.211.211.3.3,0,0,0,.042.126.347.347,0,0,1-.274.19c-.232,0-.316-.168-.316-.358v-.042h.042a.4.4,0,0,1,.358.19.453.453,0,0,0,.042-.211v-.063a.558.558,0,0,0,.295-.147.4.4,0,0,0-.295-.147v-.084a.453.453,0,0,0-.042-.211.347.347,0,0,1-.274.19.388.388,0,0,1,.19-.295.453.453,0,0,0-.211-.042c-.021,0-.126.021-.126.021a.592.592,0,0,0-.505-.316.733.733,0,0,0-.379.105.486.486,0,0,1,.379.126c.19.19.19.337.19.821,0,.526.274.8.653.8a.721.721,0,0,1,.927,0,.611.611,0,0,1,.884,0,.721.721,0,0,1,.926,0,.611.611,0,0,1,.884,0,.721.721,0,0,1,.926,0,.611.611,0,0,1,.884,0,.721.721,0,0,1,.926,0c.4,0,.674-.253.674-.8,0-.505.021-.653.19-.821a.486.486,0,0,1,.379-.126c-.211-.021-.379-.105-.569-.105" transform="translate(-492.398 -200.482)"/>
  <path id="Path_1975" data-name="Path 1975" class="cls-2" d="M512.08,229.158l-.253-.021-.105.232-.105-.232-.253.021.147-.19-.147-.19.253.021.105-.232.105.232.253-.021-.147.19Zm0,2.99-.253-.021-.105.232-.105-.232-.253.021.147-.19-.147-.19.253.021.105-.232.105.232.253-.021-.147.19Zm-.042,2.99-.253-.021-.105.232-.105-.232-.253.021.147-.19-.147-.189.253.021.105-.232.105.232.253-.021-.147.189Zm-.884-.779a1.879,1.879,0,0,1-.105.632h-.59l-.19-.442a.444.444,0,0,0,.126-.337.424.424,0,0,0-.063-.232l-.232-.4-.274-.779-.021-.316.063-.042a.1.1,0,0,0,.042-.126l-.021-.063a.1.1,0,0,0-.126-.063l-.084.021-.126-.105a.127.127,0,0,0-.084-.021l-.084.021-.19-.147a.04.04,0,0,0-.063,0l-.105.147a.1.1,0,0,0,0,.105l.168.274v.484h-.126c-.063,0-.126-.063-.126-.168v-.147a.16.16,0,0,0-.042-.084l-.105-.105v-.611c.779-.084,1.39-.505,1.39-1.032,0-.569-.737-1.032-1.642-1.032s-1.642.463-1.642,1.032c0,.526.59.948,1.39,1.032v2.822a.288.288,0,0,1-.295.295h-1.874a1.879,1.879,0,0,1-.105-.632v-4.822h5.1v4.843Zm-1.748.19.253.295-.126.042c-.021,0-.063.021-.063.042l-.021.042h-.316a.288.288,0,0,1-.295-.295v-1.39l.168.358a.15.15,0,0,0,.126.063l.084-.021v.063a.647.647,0,0,0,.021.211c.042.295.168.4.211.421l-.042.063a.094.094,0,0,0,0,.105m-.8,1.558c-1.411,0-2.064-.421-2.337-.884h4.675c-.295.463-.926.884-2.337.884m-2.737-.969-.253-.021-.105.232-.105-.232-.253.021.147-.19-.147-.189.253.021.105-.232.105.232.253-.021-.147.189Zm-.737-3.39.253.021.105-.232.105.232.253-.021-.147.19.147.189-.253-.021-.105.232-.105-.232-.253.021.147-.189Zm0-2.99.253.021.105-.232.105.232.253-.021-.147.189.147.19-.253-.021-.105.232-.105-.232-.253.042.147-.19Zm3.116,0,.253.021.105-.232.105.232.253-.021-.147.189.147.19-.253-.021-.105.232-.105-.232-.253.021.147-.19ZM504.9,228.4v6.085c0,1.811,1.263,2.822,3.706,2.822,2.464,0,3.706-1.032,3.706-2.822V228.4Z" transform="translate(-494.372 -212.797)"/>
</svg>
