<svg xmlns="http://www.w3.org/2000/svg" viewBox="0 0 16 12.571">
  <defs>
    <style>
      .cls-1 {
        fill: #5f6f82;
      }
    </style>
  </defs>
  <g id="_001-envelope" data-name="001-envelope" transform="translate(0 -54.82)">
    <g id="Group_230" data-name="Group 230" transform="translate(0 54.82)">
      <path id="Path_343" data-name="Path 343" class="cls-1" d="M1.536,58.695q.3.214,1.83,1.272T5.705,61.6q.089.063.379.272t.482.339q.192.129.464.29a2.693,2.693,0,0,0,.513.241,1.415,1.415,0,0,0,.446.08h.018a1.416,1.416,0,0,0,.446-.08,2.7,2.7,0,0,0,.513-.241q.272-.161.464-.29t.482-.339q.29-.21.379-.272l4.179-2.9a4.242,4.242,0,0,0,1.089-1.1A2.358,2.358,0,0,0,16,56.249a1.441,1.441,0,0,0-1.429-1.429H1.429a1.275,1.275,0,0,0-1.058.464A1.8,1.8,0,0,0,0,56.445a2.086,2.086,0,0,0,.491,1.219A4.432,4.432,0,0,0,1.536,58.695Z" transform="translate(0 -54.82)"/>
      <path id="Path_344" data-name="Path 344" class="cls-1" d="M15.107,185.214q-2.928,1.982-4.446,3.08-.509.375-.826.585a5.1,5.1,0,0,1-.844.428,2.569,2.569,0,0,1-.982.219H7.991a2.57,2.57,0,0,1-.982-.219,5.1,5.1,0,0,1-.844-.428q-.317-.21-.826-.585Q4.134,187.41.9,185.214a4.73,4.73,0,0,1-.9-.777v7.089a1.375,1.375,0,0,0,.42,1.009,1.375,1.375,0,0,0,1.009.42H14.571A1.433,1.433,0,0,0,16,191.526v-7.089A4.924,4.924,0,0,1,15.107,185.214Z" transform="translate(0 -180.384)"/>
    </g>
  </g>
</svg>
