<svg xmlns="http://www.w3.org/2000/svg" viewBox="0 0 87.557 88.969">
  <defs>
    <style>
      .cls-1 {
        fill: #37b2ef;
      }

      .cls-2 {
        opacity: 0.796;
      }

      .cls-3 {
        fill: #fff;
      }
    </style>
  </defs>
  <g id="Group_117" data-name="Group 117" transform="translate(-241.789 -1119.887)">
    <path id="Path_262" data-name="Path 262" class="cls-1" d="M54.467,15.485C76.435,22.23,90.654,20,94.255,55.719s-27.207,54.453-52.6,43.553-29.743-24.855-34.212-53S32.5,8.74,54.467,15.485Z" transform="translate(234.802 1106.493)"/>
    <g id="_001-chart" data-name="001-chart" class="cls-2" transform="translate(265.625 1144.855)">
      <g id="Group_53" data-name="Group 53" transform="translate(5.85)">
        <g id="Group_52" data-name="Group 52">
          <path id="Path_263" data-name="Path 263" class="cls-3" d="M104.787,0c-.157,0-.312.008-.465.023A.769.769,0,0,0,104.138,0H80.926A4.932,4.932,0,0,0,76,4.926V8a.77.77,0,0,0,1.539,0V4.926a3.391,3.391,0,0,1,3.387-3.387h20.355a4.753,4.753,0,0,0-1.266,3.233.77.77,0,0,0,0,.077.77.77,0,0,0,0,.077v5.26a.77.77,0,0,0,1.539,0V5.542h7.235a.77.77,0,0,0,.77-.77A4.778,4.778,0,0,0,104.787,0Zm-3.139,4a3.232,3.232,0,0,1,6.279,0Z" transform="translate(-76 0)"/>
        </g>
      </g>
      <g id="Group_55" data-name="Group 55" transform="translate(2.174 4.156)">
        <g id="Group_54" data-name="Group 54">
          <path id="Path_264" data-name="Path 264" class="cls-3" d="M52.081,53.99H47.19a.77.77,0,1,0,0,1.539h3.13L41.589,64.26l-5.118-5.118a.77.77,0,0,0-1.089,0l-6.908,6.908a.77.77,0,1,0,1.089,1.089l6.364-6.364,5.118,5.118a.77.77,0,0,0,1.089,0l9.177-9.177v2.935a.77.77,0,1,0,1.539,0V54.76A.77.77,0,0,0,52.081,53.99Z" transform="translate(-28.249 -53.99)"/>
        </g>
      </g>
      <g id="Group_57" data-name="Group 57" transform="translate(0 18.165)">
        <g id="Group_56" data-name="Group 56">
          <path id="Path_265" data-name="Path 265" class="cls-3" d="M1.314,236.226a.769.769,0,0,0-1.088,0,.77.77,0,0,0,.544,1.314.77.77,0,0,0,.544-1.314Z" transform="translate(0 -236)"/>
        </g>
      </g>
      <g id="Group_59" data-name="Group 59" transform="translate(1.693 16.474)">
        <g id="Group_58" data-name="Group 58">
          <path id="Path_266" data-name="Path 266" class="cls-3" d="M55.406,221.725a.77.77,0,0,0-.77-.77h-5.85v-5.85a.77.77,0,0,0-.77-.77,7.389,7.389,0,1,0,2.154,14.458v3.4a3.233,3.233,0,0,1-6.466,0c0-.024,0-.048,0-.071a.779.779,0,0,0,0-.083.77.77,0,0,0-.77-.77H27.7V214.8a.77.77,0,0,0-1.539,0v16.47H22.77a.77.77,0,0,0-.77.77,4.932,4.932,0,0,0,4.926,4.926H46.939a4.778,4.778,0,0,0,4.772-4.772v-4c0-.021,0-.042,0-.063A7.394,7.394,0,0,0,55.406,221.725Zm-28.48,13.7a3.393,3.393,0,0,1-3.3-2.617h18.58a4.757,4.757,0,0,0,1.225,2.617Zm21.091-7.85a5.85,5.85,0,0,1-.77-11.649v5.8a.77.77,0,0,0,.77.77h5.8A5.859,5.859,0,0,1,48.017,227.575Z" transform="translate(-22 -214.029)"/>
        </g>
      </g>
      <g id="Group_61" data-name="Group 61" transform="translate(29.557 12.472)">
        <g id="Group_60" data-name="Group 60">
          <path id="Path_267" data-name="Path 267" class="cls-3" d="M384.77,162.029a.77.77,0,0,0-.77.77v8.313a.77.77,0,0,0,.77.77h8.313a.77.77,0,0,0,.77-.77A9.093,9.093,0,0,0,384.77,162.029Zm.77,8.313v-6.734a7.557,7.557,0,0,1,6.734,6.734Z" transform="translate(-384 -162.029)"/>
        </g>
      </g>
      <g id="Group_63" data-name="Group 63" transform="translate(8.852 24.939)">
        <g id="Group_62" data-name="Group 62">
          <path id="Path_268" data-name="Path 268" class="cls-3" d="M122.389,324H115.77a.77.77,0,0,0,0,1.539h6.619a.77.77,0,0,0,0-1.539Z" transform="translate(-115 -324)"/>
        </g>
      </g>
      <g id="Group_65" data-name="Group 65" transform="translate(18.512 28.633)">
        <g id="Group_64" data-name="Group 64">
          <path id="Path_269" data-name="Path 269" class="cls-3" d="M241.814,372.226a.769.769,0,1,0,.226.544A.775.775,0,0,0,241.814,372.226Z" transform="translate(-240.5 -372)"/>
        </g>
      </g>
      <g id="Group_67" data-name="Group 67" transform="translate(8.852 28.633)">
        <g id="Group_66" data-name="Group 66">
          <path id="Path_270" data-name="Path 270" class="cls-3" d="M122.389,372H115.77a.77.77,0,1,0,0,1.539h6.619a.77.77,0,0,0,0-1.539Z" transform="translate(-115 -372)"/>
        </g>
      </g>
      <g id="Group_69" data-name="Group 69" transform="translate(8.852 21.244)">
        <g id="Group_68" data-name="Group 68">
          <path id="Path_271" data-name="Path 271" class="cls-3" d="M118.419,276H115.77a.77.77,0,1,0,0,1.539h2.649a.77.77,0,1,0,0-1.539Z" transform="translate(-115 -276)"/>
        </g>
      </g>
    </g>
  </g>
</svg>
