<svg xmlns="http://www.w3.org/2000/svg" viewBox="0 0 87.56 88.972">
  <defs>
    <style>
      .cls-1 {
        fill: #ff7f40;
      }

      .cls-2 {
        opacity: 0.8;
      }

      .cls-3 {
        fill: #fff;
      }
    </style>
  </defs>
  <g id="Group_123" data-name="Group 123" transform="translate(-241.789 -1119.887)">
    <path id="Path_262" data-name="Path 262" class="cls-1" d="M54.469,15.485C76.438,22.23,90.657,20,94.258,55.721S67.049,110.176,41.652,99.275s-29.745-24.856-34.213-53S32.5,8.74,54.469,15.485Z" transform="translate(234.802 1106.493)"/>
    <g id="_003-work-team" data-name="003-work-team" class="cls-2" transform="translate(266.705 1144.934)">
      <g id="Group_94" data-name="Group 94" transform="translate(3.925 0)">
        <g id="Group_93" data-name="Group 93" transform="translate(0 0)">
          <path id="Path_274" data-name="Path 274" class="cls-3" d="M79.215,7.385,75.944,4.114a.654.654,0,0,0-.821-.085L71.488,6.411l-3.92-1.636-.6-4.215A.654.654,0,0,0,66.32,0H61.086a.654.654,0,0,0-.648.561l-.6,4.215L55.921,6.411,52.285,4.03a.654.654,0,0,0-.821.085L48.193,7.386a.654.654,0,0,0-.084.822l2.421,3.677-.406.938,1.2.519.546-1.261a.654.654,0,0,0-.054-.62L49.493,7.935l2.518-2.518L55.493,7.7a.661.661,0,0,0,.612.056l4.58-1.918a.654.654,0,0,0,.393-.511l.576-4.016h4.1l.574,4.018a.654.654,0,0,0,.393.511L71.3,7.754a.66.66,0,0,0,.611-.056l3.483-2.279,2.536,2.536-1.7,2.879a.654.654,0,0,0-.05.564l.726,1.916,1.224-.463-.614-1.622,1.8-3.047A.654.654,0,0,0,79.215,7.385Z" transform="translate(-48.001 0)"/>
        </g>
      </g>
      <g id="Group_96" data-name="Group 96" transform="translate(12.43 22.898)">
        <g id="Group_95" data-name="Group 95">
          <path id="Path_275" data-name="Path 275" class="cls-3" d="M166.2,282.154l-1.963-1.963a.654.654,0,0,0-.463-.192h-9.159a.654.654,0,0,0-.463.192l-1.963,1.963a.654.654,0,0,0-.192.463V295.7a.654.654,0,0,0,.654.654h13.085a.654.654,0,0,0,.654-.654V282.617A.654.654,0,0,0,166.2,282.154Zm-4.771-.846h2.075l-2.346,2.346-1.038-1.038Zm-1.2,3.271-.846.846a.27.27,0,1,1-.383,0l-.846-.851,1.038-1.038Zm-.654-3.271-.383.383-.383-.383Zm-2.617,0,1.308,1.308-1.038,1.038-2.346-2.346Zm-.3,13.739h-3.353v-12.16l.654-.654,2.809,2.809,1.079,1.079Zm1.32,0,1.209-9.073a.59.59,0,0,0,.006-.083.623.623,0,0,0,.013.125l1.806,9.031Zm7.1,0H162.35l-1.789-8.944,1.061-1.061,2.809-2.809.654.654Z" transform="translate(-152 -280)"/>
        </g>
      </g>
      <g id="Group_98" data-name="Group 98" transform="translate(14.393 8.505)">
        <g id="Group_97" data-name="Group 97">
          <path id="Path_276" data-name="Path 276" class="cls-3" d="M185.813,104h-5.888A3.929,3.929,0,0,0,176,107.925v3.925a5.234,5.234,0,0,0,10.468,0v-7.2A.654.654,0,0,0,185.813,104Zm-.654,7.851a3.925,3.925,0,1,1-7.851,0v-2.617h5.234a3.9,3.9,0,0,0,2.617-1.008Zm-2.617-3.925h-5.234a2.617,2.617,0,0,1,2.617-2.617h5.234A2.617,2.617,0,0,1,182.542,107.925Z" transform="translate(-176 -104)"/>
        </g>
      </g>
      <g id="Group_100" data-name="Group 100" transform="translate(28.786 25.515)">
        <g id="Group_99" data-name="Group 99">
          <path id="Path_277" data-name="Path 277" class="cls-3" d="M362.276,314.154l-1.963-1.963a.654.654,0,0,0-.463-.192h-5.234a.654.654,0,0,0-.463.192l-1.963,1.963a.654.654,0,0,0-.192.463v10.468a.654.654,0,0,0,.654.654h9.159a.654.654,0,0,0,.654-.654V314.617A.654.654,0,0,0,362.276,314.154Zm-1.117,10.276h-3.271v-9.813H356.58v9.813h-3.271v-9.543l1.308-1.308,1.5,1.5.463-.463.463-.463-.846-.846h2.127l-.884.832.449.477.449.477,1.56-1.469,1.263,1.263Z" transform="translate(-352 -312)"/>
        </g>
      </g>
      <g id="Group_102" data-name="Group 102" transform="translate(30.106 14.393)">
        <g id="Group_101" data-name="Group 101">
          <path id="Path_278" data-name="Path 278" class="cls-3" d="M372.7,176h-1.287a3.278,3.278,0,0,0-3.271,3.26l-.01,3.276a3.919,3.919,0,0,0,3.906,3.932h.013a3.925,3.925,0,0,0,3.921-3.919v-3.278A3.275,3.275,0,0,0,372.7,176Zm-3.25,3.265a1.963,1.963,0,0,1,1.941-1.956,1.963,1.963,0,0,1-1.941,1.963Zm5.212,3.282a2.61,2.61,0,1,1-5.221,0v-.007l.007-1.963a3.271,3.271,0,0,0,2.6-1.308,3.271,3.271,0,0,0,2.617,1.308Zm-1.963-5.238a1.963,1.963,0,0,1,1.963,1.963A1.963,1.963,0,0,1,372.7,177.308Z" transform="translate(-368.136 -176)"/>
        </g>
      </g>
      <g id="Group_104" data-name="Group 104" transform="translate(0 25.515)">
        <g id="Group_103" data-name="Group 103">
          <path id="Path_279" data-name="Path 279" class="cls-3" d="M10.276,314.154l-1.963-1.963A.654.654,0,0,0,7.851,312H2.617a.654.654,0,0,0-.463.192L.192,314.154a.654.654,0,0,0-.192.463v10.468a.654.654,0,0,0,.654.654H9.813a.654.654,0,0,0,.654-.654V314.617A.654.654,0,0,0,10.276,314.154ZM9.159,324.43H5.888v-9.813H4.58v9.813H1.308v-9.543l1.308-1.308,1.5,1.5.463-.463.463-.463-.846-.846H6.323l-.884.832.449.477.449.477,1.56-1.469,1.263,1.263Z" transform="translate(0 -312)"/>
        </g>
      </g>
      <g id="Group_106" data-name="Group 106" transform="translate(1.32 14.393)">
        <g id="Group_105" data-name="Group 105">
          <path id="Path_280" data-name="Path 280" class="cls-3" d="M20.7,176H19.417a3.278,3.278,0,0,0-3.271,3.26l-.01,3.276a3.919,3.919,0,0,0,3.906,3.932h.013a3.925,3.925,0,0,0,3.921-3.919v-3.278A3.275,3.275,0,0,0,20.7,176Zm0,1.308a1.963,1.963,0,0,1,1.842,1.308H21.358a1.963,1.963,0,0,1-1.842-1.308Zm-2.617.529v.12a.645.645,0,0,1-.193.463.623.623,0,0,1-.308.164A1.963,1.963,0,0,1,18.087,177.837Zm4.58,4.712a2.61,2.61,0,0,1-5.221,0v-.007l.009-2.622a1.945,1.945,0,0,0,1.365-.57,1.993,1.993,0,0,0,.273-.345,3.256,3.256,0,0,0,2.266.921h1.308Z" transform="translate(-16.136 -176)"/>
        </g>
      </g>
    </g>
  </g>
</svg>
