<svg id="ac323760-2b5c-40a7-83ed-2bc26a7ffab7" data-name="Capa 1" xmlns="http://www.w3.org/2000/svg" viewBox="0 0 96.25 520.63"><defs><style>.dc130abd-67ad-4239-83c1-73e90b4a920a{fill:none;}.f847a6d8-0087-473d-8824-3defa406ca0e{fill:#37b2ef;opacity:0.75;}.\32 8e14c93-1874-4a0a-8e57-abef2ccc34fd,.f847a6d8-0087-473d-8824-3defa406ca0e{isolation:isolate;}.\32 8e14c93-1874-4a0a-8e57-abef2ccc34fd{fill:#ff7f40;opacity:0.6;}</style></defs><title>left-shape</title><path class="dc130abd-67ad-4239-83c1-73e90b4a920a" d="M187.18,78.68c30.56,38.84,72.83,114.46,50.16,217.46,43,56.13,66.78,123,19.29,185.5-43.13,56.82-57.89,93.15-69.76,117.67h95.88V78.68Z" transform="translate(-186.5 -78.68)"/><path class="f847a6d8-0087-473d-8824-3defa406ca0e" d="M237.34,296.14c-7.61,34.56-22.52,72.2-47.65,112.57l-3.19,5.11V599.31h.37c11.87-24.52,26.63-60.85,69.76-117.67C304.12,419.1,280.31,352.27,237.34,296.14Z" transform="translate(-186.5 -78.68)"/><path class="28e14c93-1874-4a0a-8e57-abef2ccc34fd" d="M237.34,296.14c22.67-103-19.6-178.62-50.16-217.46h-.68V240.94C204.31,257.53,222,276.16,237.34,296.14Z" transform="translate(-186.5 -78.68)"/><path class="f847a6d8-0087-473d-8824-3defa406ca0e" d="M237.34,296.14c-15.3-20-33-38.61-50.84-55.2V413.82l3.19-5.11C214.82,368.34,229.73,330.7,237.34,296.14Z" transform="translate(-186.5 -78.68)"/><path class="28e14c93-1874-4a0a-8e57-abef2ccc34fd" d="M237.34,296.14c-15.3-20-33-38.61-50.84-55.2V413.82l3.19-5.11C214.82,368.34,229.73,330.7,237.34,296.14Z" transform="translate(-186.5 -78.68)"/></svg>