<?xml version="1.0" encoding="utf-8"?>
<!-- Generator: Adobe Illustrator 25.2.1, SVG Export Plug-In . SVG Version: 6.00 Build 0)  -->
<svg version="1.1" id="Capa_1" xmlns="http://www.w3.org/2000/svg" xmlns:xlink="http://www.w3.org/1999/xlink" x="0px" y="0px"
	 viewBox="0 0 227.6 186.6" style="enable-background:new 0 0 227.6 186.6;" xml:space="preserve">
<style type="text/css">
	.st0{fill:#244084;}
	.st1{fill:#F6E000;}
	.st2{fill:#1E1A17;}
</style>
<rect x="0.4" class="st0" width="227.2" height="153.5"/>
<path class="st1" d="M55.7,77.4l-6-4.3l7.3-0.4l2.4-7.4l3.2,7.3l7.3-0.4l-5.6,5l2.6,7.1l-6.5-3.9L53.8,85L55.7,77.4z M62,104.8
	l-5.8-4.3l7.3-0.4l2.2-7.4l3.3,7.3l7.1-0.4l-5.6,4.8l2.6,7.3l-6.5-3.9l-6.5,4.7L62,104.8z M81,124.9l-5.8-4.1l7.3-0.4l2.4-7.4
	l3.2,7.1l7.3-0.4l-5.8,5l2.8,7.3l-6.7-4.1l-6.3,4.7L81,124.9z M107.8,132.9l-5.8-4.1l7.3-0.4l2.4-7.5l3.2,7.1l7.3-0.4l-5.8,5
	l2.8,7.3l-6.7-4.1l-6.3,4.7L107.8,132.9z M135.4,126.4l-5.8-4.3l7.3-0.2l2.4-7.5l3.2,7.1l7.3-0.4l-5.8,5l2.8,7.1l-6.7-3.9l-6.3,4.7
	L135.4,126.4z M155.9,107l-5.8-4.1l7.3-0.4l2.4-7.4l3.2,7.1l7.3-0.4l-5.8,5l2.8,7.3l-6.7-4.1l-6.5,4.7L155.9,107z M164,80.7
	l-5.8-4.3l7.3-0.4l2.4-7.4l3.2,7.3l7.3-0.4l-5.8,4.8l2.8,7.3l-6.7-3.9l-6.3,4.7L164,80.7z M157.2,53l-1.7,7.6L162,56l6.5,3.9
	l-2.8-7.3l6-5l-7.4,0.4l-3.2-7.1l-2.2,7.5l-7.5,0.4L157.2,53z M138.2,33.2l-5.8-4.1l7.3-0.4l2.4-7.4l3.2,7.1l7.3-0.4l-5.8,5l2.8,7.3
	l-6.7-3.9l-6.3,4.5L138.2,33.2z M112.1,25.1l-5.8-4.1l7.3-0.6l2.2-7.5l3.4,7.3l7.1-0.4l-5.6,5l2.6,7.1l-6.5-3.9l-6.5,4.7L112.1,25.1
	z M84.7,31.4l-5.8-4.1l7.3-0.4l2.4-7.4l3.2,7.1l7.3-0.4l-5.8,5l2.6,7.1l-6.5-3.9L82.9,39L84.7,31.4z M64.2,50.2l-5.8-4.1l7.3-0.4
	l2.4-7.5l3.2,7.3l7.3-0.6l-5.8,5l2.8,7.3l-6.7-3.9l-6.3,4.5L64.2,50.2z"/>
<path class="st2" d="M38.1,172.2h3v8.6c0,1,0.1,1.7,0.3,2.1c0.4,0.8,1.1,1.2,2.3,1.2c1.2,0,1.9-0.4,2.3-1.2c0.2-0.4,0.3-1.1,0.3-2.1
	v-8.6h3v8.6c0,1.5-0.2,2.6-0.7,3.5c-0.9,1.5-2.5,2.3-4.9,2.3c-2.4,0-4.1-0.8-4.9-2.3c-0.5-0.8-0.7-2-0.7-3.5V172.2z"/>
<polygon class="st2" points="52.1,172.2 55.1,172.2 60.7,182 60.7,172.2 63.4,172.2 63.4,186.2 60.5,186.2 54.8,176.3 54.8,186.2 
	52.1,186.2 "/>
<rect x="65.9" y="172.2" class="st2" width="2.9" height="14"/>
<path class="st2" d="M82.4,185c-1.1,1.1-2.6,1.6-4.6,1.6c-2,0-3.5-0.5-4.6-1.6c-1.4-1.3-2.1-3.3-2.1-5.8c0-2.6,0.7-4.5,2.1-5.8
	c1.1-1.1,2.6-1.6,4.6-1.6c2,0,3.5,0.5,4.6,1.6c1.4,1.3,2.1,3.2,2.1,5.8C84.5,181.7,83.8,183.6,82.4,185 M80.5,182.8
	c0.7-0.9,1-2.1,1-3.6c0-1.6-0.3-2.8-1-3.6c-0.7-0.9-1.6-1.3-2.8-1.3c-1.2,0-2.1,0.4-2.8,1.3c-0.7,0.9-1,2.1-1,3.6
	c0,1.6,0.3,2.8,1,3.6c0.7,0.9,1.6,1.3,2.8,1.3C78.9,184.1,79.8,183.7,80.5,182.8 M81,167.8l-2.9,2.8h-2l1.8-2.8H81z"/>
<polygon class="st2" points="86.7,172.2 89.7,172.2 95.3,182 95.3,172.2 98,172.2 98,186.2 95.1,186.2 89.4,176.3 89.4,186.2 
	86.7,186.2 "/>
<polygon class="st2" points="116.5,174.7 109.1,174.7 109.1,177.7 115.9,177.7 115.9,180.1 109.1,180.1 109.1,183.7 116.9,183.7 
	116.9,186.2 106.2,186.2 106.2,172.2 116.5,172.2 "/>
<path class="st2" d="M119.1,172.2h3v8.6c0,1,0.1,1.7,0.3,2.1c0.4,0.8,1.1,1.2,2.3,1.2c1.2,0,1.9-0.4,2.3-1.2
	c0.2-0.4,0.3-1.1,0.3-2.1v-8.6h3v8.6c0,1.5-0.2,2.6-0.7,3.5c-0.9,1.5-2.5,2.3-4.9,2.3c-2.4,0-4.1-0.8-4.9-2.3
	c-0.5-0.8-0.7-2-0.7-3.5V172.2z"/>
<path class="st2" d="M142.2,172.6c0.5,0.2,1,0.5,1.3,1c0.3,0.4,0.5,0.7,0.7,1.2c0.2,0.4,0.3,0.9,0.3,1.5c0,0.7-0.2,1.3-0.5,2
	c-0.3,0.6-0.9,1.1-1.7,1.4c0.6,0.3,1.1,0.6,1.4,1.1c0.3,0.5,0.4,1.2,0.4,2.2v0.9c0,0.6,0,1.1,0.1,1.3c0.1,0.4,0.3,0.6,0.5,0.8v0.4
	h-3.2c-0.1-0.3-0.2-0.6-0.2-0.8c-0.1-0.4-0.1-0.8-0.1-1.2l0-1.3c0-0.9-0.2-1.5-0.5-1.8c-0.3-0.3-0.9-0.4-1.7-0.4h-2.9v5.5h-2.9v-14
	h6.7C140.9,172.2,141.6,172.3,142.2,172.6 M136.1,174.6v3.8h3.1c0.6,0,1.1-0.1,1.4-0.2c0.6-0.3,0.8-0.8,0.8-1.6
	c0-0.8-0.3-1.4-0.8-1.7c-0.3-0.2-0.8-0.2-1.4-0.2H136.1z"/>
<path class="st2" d="M158,185c-1.1,1.1-2.6,1.6-4.6,1.6c-2,0-3.5-0.5-4.6-1.6c-1.4-1.3-2.1-3.3-2.1-5.8c0-2.6,0.7-4.5,2.1-5.8
	c1.1-1.1,2.6-1.6,4.6-1.6c2,0,3.5,0.5,4.6,1.6c1.4,1.3,2.1,3.2,2.1,5.8C160.1,181.7,159.4,183.6,158,185 M156.2,182.8
	c0.7-0.9,1-2.1,1-3.6c0-1.6-0.3-2.8-1-3.6c-0.7-0.9-1.6-1.3-2.8-1.3c-1.2,0-2.1,0.4-2.8,1.3c-0.7,0.9-1,2.1-1,3.6
	c0,1.6,0.3,2.8,1,3.6c0.7,0.9,1.6,1.3,2.8,1.3C154.6,184.1,155.5,183.7,156.2,182.8"/>
<path class="st2" d="M171.8,180.1c-0.8,0.7-2,1-3.5,1h-2.9v5h-2.9v-14h6c1.4,0,2.5,0.4,3.3,1.1c0.8,0.7,1.2,1.8,1.2,3.4
	C173,178.3,172.6,179.5,171.8,180.1 M169.5,175.1c-0.4-0.3-0.9-0.5-1.6-0.5h-2.6v4.1h2.6c0.7,0,1.2-0.2,1.6-0.5
	c0.4-0.3,0.6-0.9,0.6-1.6C170.1,175.9,169.9,175.4,169.5,175.1"/>
<polygon class="st2" points="185.7,174.7 178.3,174.7 178.3,177.7 185.1,177.7 185.1,180.1 178.3,180.1 178.3,183.7 186,183.7 
	186,186.2 175.4,186.2 175.4,172.2 185.7,172.2 "/>
<path class="st2" d="M192.3,172.2h3.3l5,14h-3.2l-0.9-2.9h-5.2l-0.9,2.9h-3.1L192.3,172.2z M192.1,180.9h3.6l-1.8-5.5L192.1,180.9z"
	/>
</svg>
