<svg id="5328eeaf-9d7c-4238-a752-b16504e005a2" data-name="Capa 1" xmlns="http://www.w3.org/2000/svg" viewBox="0 0 60.85 545.19"><defs><style>.\33 baee83a-d83e-4c99-a251-0adc32aa3f47{fill:none;}.\36 a5f0f80-4966-4a1c-811f-9146f48870ca{fill:#f2517e;opacity:0.75;}.\31 915791a-0517-463c-afb5-35a5e456b327,.\36 a5f0f80-4966-4a1c-811f-9146f48870ca{isolation:isolate;}.\31 915791a-0517-463c-afb5-35a5e456b327{fill:#f4c55c;opacity:0.6;}</style></defs><title>right-shape</title><path class="3baee83a-d83e-4c99-a251-0adc32aa3f47" d="M290.51,480.87c-11.33-146.29-58.79-109.4,7.85-217.89-29.59-87.5-36.26-175.16,26-228.57v-.1H263.53V579.5h59.12C306.48,557.31,294,525.75,290.51,480.87Z" transform="translate(-263.53 -34.31)"/><path class="6a5f0f80-4966-4a1c-811f-9146f48870ca" d="M298.36,263c6.05-9.83,13-20.85,21.05-33.32,1.74-2.71,3.39-5.38,5-8V34.41C262.1,87.82,268.77,175.48,298.36,263Z" transform="translate(-263.53 -34.31)"/><path class="1915791a-0517-463c-afb5-35a5e456b327" d="M290.51,480.87c3.47,44.88,16,76.44,32.14,98.63h1.73V328.61c-9.64-21.5-18.55-43.56-26-65.63C231.72,371.47,279.18,334.58,290.51,480.87Z" transform="translate(-263.53 -34.31)"/><path class="6a5f0f80-4966-4a1c-811f-9146f48870ca" d="M298.36,263c7.47,22.07,16.38,44.13,26,65.63v-107c-1.58,2.66-3.23,5.33-5,8C311.38,242.13,304.41,253.15,298.36,263Z" transform="translate(-263.53 -34.31)"/><path class="1915791a-0517-463c-afb5-35a5e456b327" d="M298.36,263c7.47,22.07,16.38,44.13,26,65.63v-107c-1.58,2.66-3.23,5.33-5,8C311.38,242.13,304.41,253.15,298.36,263Z" transform="translate(-263.53 -34.31)"/></svg>