<?xml version="1.0" encoding="utf-8"?>
<!-- Generator: Adobe Illustrator 25.2.1, SVG Export Plug-In . SVG Version: 6.00 Build 0)  -->
<svg version="1.1" id="Capa_1" xmlns="http://www.w3.org/2000/svg" xmlns:xlink="http://www.w3.org/1999/xlink" x="0px" y="0px"
	 viewBox="0 0 296.9 40.8" style="enable-background:new 0 0 296.9 40.8;" xml:space="preserve">
<style type="text/css">
	.st0{fill:#020203;}
</style>
<g>
	<path class="st0" d="M1.4,13.4V1.2h8.2v1.4H3v3.8h5.7v1.4H3v5.5H1.4z"/>
	<path class="st0" d="M10.9,9c0-1.6,0.5-2.8,1.4-3.6c0.8-0.7,1.7-1,2.8-1c1.2,0,2.2,0.4,3,1.2s1.2,1.9,1.2,3.3c0,1.1-0.2,2-0.5,2.7
		c-0.3,0.7-0.8,1.2-1.5,1.5c-0.6,0.4-1.4,0.5-2.1,0.5c-1.2,0-2.2-0.4-3-1.2C11.3,11.6,10.9,10.5,10.9,9z M12.5,9
		c0,1.1,0.2,2,0.7,2.5s1.1,0.8,1.9,0.8c0.7,0,1.4-0.3,1.9-0.8s0.7-1.4,0.7-2.6c0-1.1-0.2-1.9-0.7-2.5c-0.5-0.6-1.1-0.8-1.8-0.8
		c-0.7,0-1.4,0.3-1.9,0.8S12.5,7.9,12.5,9z"/>
	<path class="st0" d="M20.9,13.4V4.6h1.3v1.3c0.6-1,1.6-1.5,2.8-1.5c0.5,0,1,0.1,1.5,0.3c0.4,0.2,0.8,0.4,1,0.8
		c0.2,0.3,0.4,0.7,0.5,1.1c0.1,0.3,0.1,0.8,0.1,1.5v5.4h-1.5V8c0-0.6-0.1-1.1-0.2-1.4S26.1,6.1,25.8,6c-0.3-0.2-0.6-0.3-1-0.3
		c-0.6,0-1.2,0.2-1.6,0.6c-0.5,0.4-0.7,1.2-0.7,2.3v4.8H20.9z"/>
	<path class="st0" d="M36.1,13.4v-1.1c-0.6,0.9-1.4,1.3-2.5,1.3c-0.7,0-1.3-0.2-1.9-0.6c-0.6-0.4-1-0.9-1.4-1.6
		C30,10.7,29.9,9.9,29.9,9c0-0.9,0.1-1.7,0.4-2.4S31,5.3,31.6,5c0.6-0.4,1.2-0.6,2-0.6c0.5,0,1,0.1,1.4,0.3c0.4,0.2,0.8,0.5,1,0.9
		V1.2h1.5v12.2H36.1z M31.4,9c0,1.1,0.2,2,0.7,2.5c0.5,0.6,1,0.8,1.7,0.8c0.7,0,1.2-0.3,1.7-0.8c0.5-0.5,0.7-1.3,0.7-2.4
		c0-1.2-0.2-2.1-0.7-2.7s-1-0.8-1.7-0.8c-0.7,0-1.2,0.3-1.7,0.8C31.6,7,31.4,7.8,31.4,9z"/>
	<path class="st0" d="M39.3,9c0-1.6,0.5-2.8,1.4-3.6c0.8-0.7,1.7-1,2.8-1c1.2,0,2.2,0.4,3,1.2s1.2,1.9,1.2,3.3c0,1.1-0.2,2-0.5,2.7
		c-0.3,0.7-0.8,1.2-1.5,1.5c-0.6,0.4-1.4,0.5-2.1,0.5c-1.2,0-2.2-0.4-3-1.2C39.7,11.6,39.3,10.5,39.3,9z M40.8,9
		c0,1.1,0.2,2,0.7,2.5s1.1,0.8,1.9,0.8c0.7,0,1.4-0.3,1.9-0.8S46,10.1,46,8.9c0-1.1-0.2-1.9-0.7-2.5c-0.5-0.6-1.1-0.8-1.8-0.8
		c-0.7,0-1.4,0.3-1.9,0.8S40.8,7.9,40.8,9z"/>
	<path class="st0" d="M54.3,13.4V1.2h8.8v1.4h-7.2v3.7h6.7v1.4h-6.7V12h7.5v1.4H54.3z"/>
	<path class="st0" d="M71.1,13.4v-1.3c-0.7,1-1.6,1.5-2.8,1.5c-0.5,0-1-0.1-1.5-0.3c-0.5-0.2-0.8-0.4-1-0.8
		c-0.2-0.3-0.4-0.7-0.5-1.1c-0.1-0.3-0.1-0.8-0.1-1.4V4.6h1.5v4.9c0,0.8,0,1.3,0.1,1.6c0.1,0.4,0.3,0.7,0.6,0.9
		c0.3,0.2,0.7,0.3,1.1,0.3s0.9-0.1,1.3-0.3s0.7-0.5,0.8-0.9c0.2-0.4,0.2-1,0.2-1.7V4.6h1.5v8.8H71.1z"/>
	<path class="st0" d="M74.8,13.4V4.6h1.3v1.3c0.3-0.6,0.7-1,1-1.2c0.3-0.2,0.6-0.3,1-0.3c0.5,0,1,0.2,1.5,0.5l-0.5,1.4
		C78.7,6,78.4,5.9,78,5.9c-0.3,0-0.6,0.1-0.9,0.3S76.7,6.7,76.6,7c-0.2,0.5-0.2,1.1-0.2,1.7v4.6H74.8z"/>
	<path class="st0" d="M79.9,9c0-1.6,0.5-2.8,1.4-3.6c0.8-0.7,1.7-1,2.8-1c1.2,0,2.2,0.4,3,1.2s1.2,1.9,1.2,3.3c0,1.1-0.2,2-0.5,2.7
		c-0.3,0.7-0.8,1.2-1.5,1.5c-0.6,0.4-1.4,0.5-2.1,0.5c-1.2,0-2.2-0.4-3-1.2C80.3,11.6,79.9,10.5,79.9,9z M81.5,9
		c0,1.1,0.2,2,0.7,2.5s1.1,0.8,1.9,0.8c0.7,0,1.4-0.3,1.9-0.8s0.7-1.4,0.7-2.6c0-1.1-0.2-1.9-0.7-2.5c-0.5-0.6-1.1-0.8-1.8-0.8
		c-0.7,0-1.4,0.3-1.9,0.8S81.5,7.9,81.5,9z"/>
	<path class="st0" d="M89.9,16.8V4.6h1.4v1.1c0.3-0.4,0.7-0.8,1.1-1c0.4-0.2,0.9-0.3,1.5-0.3c0.8,0,1.4,0.2,2,0.6s1,0.9,1.3,1.6
		c0.3,0.7,0.4,1.5,0.4,2.3c0,0.9-0.2,1.7-0.5,2.4c-0.3,0.7-0.8,1.3-1.4,1.7c-0.6,0.4-1.3,0.6-1.9,0.6c-0.5,0-0.9-0.1-1.3-0.3
		c-0.4-0.2-0.7-0.5-1-0.8v4.3H89.9z M91.3,9c0,1.1,0.2,2,0.7,2.5s1,0.8,1.7,0.8c0.7,0,1.2-0.3,1.7-0.8c0.5-0.6,0.7-1.4,0.7-2.6
		c0-1.1-0.2-2-0.7-2.5c-0.5-0.6-1-0.8-1.7-0.8c-0.6,0-1.2,0.3-1.7,0.9C91.5,7,91.3,7.9,91.3,9z"/>
	<path class="st0" d="M105.4,10.6l1.5,0.2c-0.2,0.9-0.7,1.6-1.4,2.1s-1.5,0.7-2.5,0.7c-1.3,0-2.3-0.4-3.1-1.2
		c-0.8-0.8-1.1-1.9-1.1-3.3c0-1.5,0.4-2.6,1.1-3.5s1.8-1.2,3-1.2c1.2,0,2.1,0.4,2.9,1.2c0.7,0.8,1.1,1.9,1.1,3.4c0,0.1,0,0.2,0,0.4
		h-6.6c0.1,1,0.3,1.7,0.8,2.2c0.5,0.5,1.1,0.8,1.8,0.8c0.5,0,1-0.1,1.4-0.4S105.2,11.2,105.4,10.6z M100.5,8.2h4.9
		c-0.1-0.7-0.3-1.3-0.6-1.7c-0.5-0.6-1.1-0.9-1.9-0.9c-0.7,0-1.3,0.2-1.7,0.7C100.8,6.8,100.6,7.4,100.5,8.2z"/>
	<path class="st0" d="M108.3,9c0-1.6,0.5-2.8,1.4-3.6c0.8-0.7,1.7-1,2.8-1c1.2,0,2.2,0.4,3,1.2s1.2,1.9,1.2,3.3c0,1.1-0.2,2-0.5,2.7
		c-0.3,0.7-0.8,1.2-1.5,1.5c-0.6,0.4-1.4,0.5-2.1,0.5c-1.2,0-2.2-0.4-3-1.2C108.7,11.6,108.3,10.5,108.3,9z M109.8,9
		c0,1.1,0.2,2,0.7,2.5s1.1,0.8,1.9,0.8c0.7,0,1.4-0.3,1.9-0.8s0.7-1.4,0.7-2.6c0-1.1-0.2-1.9-0.7-2.5c-0.5-0.6-1.1-0.8-1.8-0.8
		c-0.7,0-1.4,0.3-1.9,0.8S109.8,7.9,109.8,9z"/>
	<path class="st0" d="M128.7,13.4v-1.1c-0.6,0.9-1.4,1.3-2.5,1.3c-0.7,0-1.3-0.2-1.9-0.6c-0.6-0.4-1-0.9-1.4-1.6
		c-0.3-0.7-0.5-1.5-0.5-2.4c0-0.9,0.1-1.7,0.4-2.4s0.7-1.3,1.3-1.6c0.6-0.4,1.2-0.6,2-0.6c0.5,0,1,0.1,1.4,0.3
		c0.4,0.2,0.8,0.5,1,0.9V1.2h1.5v12.2H128.7z M124,9c0,1.1,0.2,2,0.7,2.5c0.5,0.6,1,0.8,1.7,0.8c0.7,0,1.2-0.3,1.7-0.8
		c0.5-0.5,0.7-1.3,0.7-2.4c0-1.2-0.2-2.1-0.7-2.7s-1-0.8-1.7-0.8c-0.7,0-1.2,0.3-1.7,0.8C124.2,7,124,7.8,124,9z"/>
	<path class="st0" d="M138.5,10.6l1.5,0.2c-0.2,0.9-0.7,1.6-1.4,2.1s-1.5,0.7-2.5,0.7c-1.3,0-2.3-0.4-3.1-1.2
		c-0.8-0.8-1.1-1.9-1.1-3.3c0-1.5,0.4-2.6,1.1-3.5s1.8-1.2,3-1.2c1.2,0,2.1,0.4,2.9,1.2c0.7,0.8,1.1,1.9,1.1,3.4c0,0.1,0,0.2,0,0.4
		h-6.6c0.1,1,0.3,1.7,0.8,2.2c0.5,0.5,1.1,0.8,1.8,0.8c0.5,0,1-0.1,1.4-0.4S138.3,11.2,138.5,10.6z M133.6,8.2h4.9
		c-0.1-0.7-0.3-1.3-0.6-1.7c-0.5-0.6-1.1-0.9-1.9-0.9c-0.7,0-1.3,0.2-1.7,0.7C133.9,6.8,133.7,7.4,133.6,8.2z"/>
	<path class="st0" d="M146.9,13.4V1.2h4.2c0.9,0,1.7,0.1,2.2,0.2c0.7,0.2,1.3,0.5,1.8,0.9c0.6,0.5,1.1,1.2,1.4,2.1s0.5,1.8,0.5,2.9
		c0,0.9-0.1,1.7-0.3,2.5c-0.2,0.7-0.5,1.3-0.8,1.8s-0.7,0.8-1.1,1.1c-0.4,0.3-0.9,0.5-1.5,0.6c-0.6,0.1-1.2,0.2-2,0.2H146.9z
		 M148.5,12h2.6c0.8,0,1.4-0.1,1.9-0.2c0.5-0.1,0.8-0.4,1.1-0.6c0.4-0.4,0.7-0.9,0.9-1.5s0.3-1.4,0.3-2.3c0-1.3-0.2-2.3-0.6-2.9
		s-0.9-1.1-1.5-1.4c-0.4-0.2-1.1-0.2-2.1-0.2h-2.6V12z"/>
	<path class="st0" d="M165,10.6l1.5,0.2c-0.2,0.9-0.7,1.6-1.4,2.1c-0.7,0.5-1.5,0.7-2.5,0.7c-1.3,0-2.3-0.4-3.1-1.2
		c-0.8-0.8-1.1-1.9-1.1-3.3c0-1.5,0.4-2.6,1.1-3.5s1.8-1.2,3-1.2c1.2,0,2.1,0.4,2.9,1.2c0.7,0.8,1.1,1.9,1.1,3.4c0,0.1,0,0.2,0,0.4
		H160c0.1,1,0.3,1.7,0.8,2.2c0.5,0.5,1.1,0.8,1.8,0.8c0.5,0,1-0.1,1.4-0.4C164.4,11.7,164.7,11.2,165,10.6z M160.1,8.2h4.9
		c-0.1-0.7-0.3-1.3-0.6-1.7c-0.5-0.6-1.1-0.9-1.9-0.9c-0.7,0-1.3,0.2-1.7,0.7C160.4,6.8,160.1,7.4,160.1,8.2z"/>
	<path class="st0" d="M167.8,10.8l1.5-0.2c0.1,0.6,0.3,1,0.7,1.4c0.4,0.3,0.9,0.5,1.6,0.5c0.7,0,1.2-0.1,1.5-0.4s0.5-0.6,0.5-1
		c0-0.3-0.1-0.6-0.4-0.8c-0.2-0.1-0.7-0.3-1.5-0.5c-1.1-0.3-1.9-0.5-2.3-0.7c-0.4-0.2-0.7-0.5-1-0.8c-0.2-0.4-0.3-0.8-0.3-1.2
		c0-0.4,0.1-0.8,0.3-1.1s0.4-0.6,0.7-0.8c0.2-0.2,0.5-0.3,1-0.4s0.8-0.2,1.3-0.2c0.7,0,1.3,0.1,1.8,0.3c0.5,0.2,0.9,0.5,1.2,0.8
		c0.2,0.3,0.4,0.8,0.5,1.4l-1.5,0.2c-0.1-0.5-0.3-0.8-0.6-1.1s-0.8-0.4-1.3-0.4c-0.7,0-1.2,0.1-1.5,0.3c-0.3,0.2-0.4,0.5-0.4,0.8
		c0,0.2,0.1,0.4,0.2,0.5c0.1,0.2,0.3,0.3,0.6,0.4c0.1,0.1,0.6,0.2,1.3,0.4c1.1,0.3,1.8,0.5,2.2,0.7s0.7,0.4,1,0.8s0.4,0.8,0.4,1.3
		c0,0.5-0.1,1-0.4,1.4c-0.3,0.4-0.7,0.8-1.3,1c-0.5,0.2-1.2,0.4-1.9,0.4c-1.1,0-2-0.2-2.6-0.7S168,11.7,167.8,10.8z"/>
	<path class="st0" d="M182.6,12.3c-0.6,0.5-1.1,0.8-1.6,1c-0.5,0.2-1.1,0.3-1.6,0.3c-1,0-1.7-0.2-2.2-0.7c-0.5-0.5-0.8-1.1-0.8-1.8
		c0-0.4,0.1-0.8,0.3-1.2c0.2-0.4,0.5-0.6,0.8-0.9s0.7-0.4,1.1-0.5c0.3-0.1,0.7-0.2,1.3-0.2c1.2-0.1,2.1-0.3,2.7-0.5
		c0-0.2,0-0.3,0-0.4c0-0.6-0.1-1-0.4-1.3c-0.4-0.3-0.9-0.5-1.7-0.5c-0.7,0-1.2,0.1-1.6,0.4s-0.6,0.7-0.7,1.3l-1.5-0.2
		c0.1-0.6,0.4-1.1,0.7-1.5s0.7-0.7,1.3-0.9c0.6-0.2,1.2-0.3,2-0.3c0.8,0,1.4,0.1,1.8,0.3c0.5,0.2,0.8,0.4,1,0.7s0.4,0.6,0.5,1
		c0,0.3,0.1,0.7,0.1,1.4v2c0,1.4,0,2.3,0.1,2.6s0.2,0.7,0.4,1.1h-1.6C182.8,13.1,182.7,12.7,182.6,12.3z M182.5,9
		c-0.5,0.2-1.4,0.4-2.4,0.6c-0.6,0.1-1,0.2-1.3,0.3c-0.3,0.1-0.5,0.3-0.6,0.5c-0.1,0.2-0.2,0.4-0.2,0.7c0,0.4,0.2,0.7,0.5,1
		s0.7,0.4,1.3,0.4c0.6,0,1.1-0.1,1.5-0.4c0.4-0.3,0.8-0.6,1-1c0.2-0.3,0.2-0.8,0.2-1.5V9z"/>
	<path class="st0" d="M186.3,13.4V4.6h1.3v1.3c0.3-0.6,0.7-1,1-1.2c0.3-0.2,0.6-0.3,1-0.3c0.5,0,1,0.2,1.5,0.5l-0.5,1.4
		c-0.4-0.2-0.7-0.3-1.1-0.3c-0.3,0-0.6,0.1-0.9,0.3s-0.4,0.5-0.6,0.8c-0.2,0.5-0.2,1.1-0.2,1.7v4.6H186.3z"/>
	<path class="st0" d="M192,13.4V4.6h1.3v1.3c0.3-0.6,0.7-1,1-1.2c0.3-0.2,0.6-0.3,1-0.3c0.5,0,1,0.2,1.5,0.5l-0.5,1.4
		c-0.4-0.2-0.7-0.3-1.1-0.3c-0.3,0-0.6,0.1-0.9,0.3s-0.4,0.5-0.6,0.8c-0.2,0.5-0.2,1.1-0.2,1.7v4.6H192z"/>
	<path class="st0" d="M197.1,9c0-1.6,0.5-2.8,1.4-3.6c0.8-0.7,1.7-1,2.8-1c1.2,0,2.2,0.4,3,1.2s1.2,1.9,1.2,3.3c0,1.1-0.2,2-0.5,2.7
		c-0.3,0.7-0.8,1.2-1.5,1.5c-0.7,0.4-1.4,0.5-2.1,0.5c-1.2,0-2.2-0.4-3-1.2C197.5,11.6,197.1,10.5,197.1,9z M198.6,9
		c0,1.1,0.2,2,0.7,2.5s1.1,0.8,1.9,0.8c0.7,0,1.4-0.3,1.9-0.8c0.5-0.6,0.7-1.4,0.7-2.6c0-1.1-0.2-1.9-0.7-2.5s-1.1-0.8-1.8-0.8
		c-0.7,0-1.4,0.3-1.9,0.8S198.6,7.9,198.6,9z"/>
	<path class="st0" d="M207.1,13.4V1.2h1.5v12.2H207.1z"/>
	<path class="st0" d="M210.9,13.4V1.2h1.5v12.2H210.9z"/>
	<path class="st0" d="M214.1,9c0-1.6,0.5-2.8,1.4-3.6c0.8-0.7,1.7-1,2.8-1c1.2,0,2.2,0.4,3,1.2s1.2,1.9,1.2,3.3c0,1.1-0.2,2-0.5,2.7
		c-0.3,0.7-0.8,1.2-1.5,1.5c-0.7,0.4-1.4,0.5-2.1,0.5c-1.2,0-2.2-0.4-3-1.2C214.5,11.6,214.1,10.5,214.1,9z M215.7,9
		c0,1.1,0.2,2,0.7,2.5s1.1,0.8,1.9,0.8c0.7,0,1.4-0.3,1.9-0.8c0.5-0.6,0.7-1.4,0.7-2.6c0-1.1-0.2-1.9-0.7-2.5s-1.1-0.8-1.8-0.8
		c-0.7,0-1.4,0.3-1.9,0.8S215.7,7.9,215.7,9z"/>
	<path class="st0" d="M229.1,13.4V1.2h5.4c1.1,0,1.9,0.1,2.5,0.3s1,0.6,1.4,1.2c0.3,0.6,0.5,1.2,0.5,1.8c0,0.9-0.3,1.6-0.8,2.2
		c-0.6,0.6-1.4,1-2.6,1.1c0.4,0.2,0.8,0.4,1,0.6c0.5,0.4,0.9,1,1.3,1.6l2.1,3.3h-2l-1.6-2.5c-0.5-0.7-0.9-1.3-1.2-1.7
		c-0.3-0.4-0.6-0.7-0.8-0.8c-0.2-0.2-0.5-0.3-0.7-0.3C233.3,8,233,8,232.6,8h-1.9v5.4H229.1z M230.7,6.6h3.5c0.7,0,1.3-0.1,1.7-0.2
		s0.7-0.4,0.9-0.7s0.3-0.7,0.3-1.1c0-0.6-0.2-1-0.6-1.4c-0.4-0.4-1.1-0.6-2-0.6h-3.9V6.6z"/>
	<path class="st0" d="M247.2,10.6l1.5,0.2c-0.2,0.9-0.7,1.6-1.4,2.1c-0.7,0.5-1.5,0.7-2.5,0.7c-1.3,0-2.3-0.4-3.1-1.2
		c-0.8-0.8-1.1-1.9-1.1-3.3c0-1.5,0.4-2.6,1.1-3.5s1.8-1.2,3-1.2c1.2,0,2.1,0.4,2.9,1.2c0.7,0.8,1.1,1.9,1.1,3.4c0,0.1,0,0.2,0,0.4
		h-6.6c0.1,1,0.3,1.7,0.8,2.2c0.5,0.5,1.1,0.8,1.8,0.8c0.5,0,1-0.1,1.4-0.4C246.6,11.7,246.9,11.2,247.2,10.6z M242.3,8.2h4.9
		c-0.1-0.7-0.3-1.3-0.6-1.7c-0.5-0.6-1.1-0.9-1.9-0.9c-0.7,0-1.3,0.2-1.7,0.7C242.6,6.8,242.3,7.4,242.3,8.2z"/>
	<path class="st0" d="M250.3,14.1l1.5,0.2c0.1,0.4,0.2,0.8,0.5,1c0.4,0.3,0.9,0.4,1.5,0.4c0.7,0,1.2-0.1,1.6-0.4s0.6-0.7,0.8-1.2
		c0.1-0.3,0.1-0.9,0.1-1.9c-0.7,0.8-1.5,1.2-2.4,1.2c-1.2,0-2.1-0.4-2.8-1.3s-1-1.9-1-3.1c0-0.8,0.2-1.6,0.5-2.3
		c0.3-0.7,0.7-1.3,1.3-1.6s1.3-0.6,2-0.6c1,0,1.9,0.4,2.6,1.3V4.6h1.4v7.6c0,1.4-0.1,2.3-0.4,2.9c-0.3,0.6-0.7,1-1.3,1.4
		c-0.6,0.3-1.4,0.5-2.2,0.5c-1.1,0-1.9-0.2-2.5-0.7C250.6,15.8,250.3,15.1,250.3,14.1z M251.6,8.8c0,1.2,0.2,2,0.7,2.5
		s1,0.8,1.7,0.8c0.7,0,1.3-0.3,1.7-0.8s0.7-1.4,0.7-2.5c0-1.1-0.2-1.9-0.7-2.4s-1.1-0.8-1.7-0.8c-0.7,0-1.2,0.3-1.7,0.8
		C251.8,7,251.6,7.8,251.6,8.8z"/>
	<path class="st0" d="M260.1,3V1.2h1.5V3H260.1z M260.1,13.4V4.6h1.5v8.8H260.1z"/>
	<path class="st0" d="M263.3,9c0-1.6,0.5-2.8,1.4-3.6c0.8-0.7,1.7-1,2.8-1c1.2,0,2.2,0.4,3,1.2s1.2,1.9,1.2,3.3c0,1.1-0.2,2-0.5,2.7
		c-0.3,0.7-0.8,1.2-1.5,1.5c-0.7,0.4-1.4,0.5-2.1,0.5c-1.2,0-2.2-0.4-3-1.2C263.6,11.6,263.3,10.5,263.3,9z M264.8,9
		c0,1.1,0.2,2,0.7,2.5s1.1,0.8,1.9,0.8c0.7,0,1.4-0.3,1.9-0.8c0.5-0.6,0.7-1.4,0.7-2.6c0-1.1-0.2-1.9-0.7-2.5s-1.1-0.8-1.8-0.8
		c-0.7,0-1.4,0.3-1.9,0.8S264.8,7.9,264.8,9z"/>
	<path class="st0" d="M273.3,13.4V4.6h1.3v1.3c0.6-1,1.6-1.5,2.8-1.5c0.5,0,1,0.1,1.5,0.3c0.4,0.2,0.8,0.4,1,0.8
		c0.2,0.3,0.4,0.7,0.5,1.1c0.1,0.3,0.1,0.8,0.1,1.5v5.4h-1.5V8c0-0.6-0.1-1.1-0.2-1.4c-0.1-0.3-0.3-0.5-0.6-0.7s-0.6-0.3-1-0.3
		c-0.6,0-1.2,0.2-1.6,0.6c-0.5,0.4-0.7,1.2-0.7,2.3v4.8H273.3z"/>
	<path class="st0" d="M288.5,12.3c-0.6,0.5-1.1,0.8-1.6,1c-0.5,0.2-1.1,0.3-1.6,0.3c-1,0-1.7-0.2-2.2-0.7c-0.5-0.5-0.8-1.1-0.8-1.8
		c0-0.4,0.1-0.8,0.3-1.2c0.2-0.4,0.5-0.6,0.8-0.9s0.7-0.4,1.1-0.5c0.3-0.1,0.7-0.2,1.3-0.2c1.2-0.1,2.1-0.3,2.7-0.5
		c0-0.2,0-0.3,0-0.4c0-0.6-0.1-1-0.4-1.3c-0.4-0.3-0.9-0.5-1.7-0.5c-0.7,0-1.2,0.1-1.6,0.4s-0.6,0.7-0.7,1.3l-1.5-0.2
		c0.1-0.6,0.4-1.1,0.7-1.5s0.7-0.7,1.3-0.9c0.6-0.2,1.2-0.3,2-0.3c0.8,0,1.4,0.1,1.8,0.3c0.5,0.2,0.8,0.4,1,0.7s0.4,0.6,0.5,1
		c0,0.3,0.1,0.7,0.1,1.4v2c0,1.4,0,2.3,0.1,2.6s0.2,0.7,0.4,1.1h-1.6C288.6,13.1,288.5,12.7,288.5,12.3z M288.4,9
		c-0.5,0.2-1.4,0.4-2.4,0.6c-0.6,0.1-1,0.2-1.3,0.3c-0.3,0.1-0.5,0.3-0.6,0.5c-0.1,0.2-0.2,0.4-0.2,0.7c0,0.4,0.2,0.7,0.5,1
		s0.7,0.4,1.3,0.4c0.6,0,1.1-0.1,1.5-0.4c0.4-0.3,0.8-0.6,1-1c0.2-0.3,0.2-0.8,0.2-1.5V9z"/>
	<path class="st0" d="M292.2,13.4V1.2h1.5v12.2H292.2z"/>
</g>
<g>
	<path class="st0" d="M55.5,27.6l-0.3,1.7h-1.4l0.3-1.5c0.3-1.6,0.9-2.5,1.8-2.7l-0.1,0.7c-0.5,0.2-0.9,0.8-1.1,1.8H55.5z
		 M57.6,27.6l-0.3,1.7h-1.4l0.3-1.5c0.3-1.6,0.9-2.5,1.8-2.7l-0.1,0.7c-0.5,0.2-0.9,0.8-1.1,1.8H57.6z"/>
	<path class="st0" d="M59.7,25.1h1.3l-1.3,7.5c-0.1,0.6-0.2,1.1-0.2,1.4c0,0.6,0.2,1.1,0.6,1.6c0.4,0.4,0.9,0.6,1.6,0.6
		c0.9,0,1.6-0.4,2.1-1.1c0.4-0.5,0.8-1.6,1-3.3l1.1-6.7h1.3l-1.2,7.1c-0.2,1.4-0.5,2.4-0.9,3.1s-0.9,1.2-1.5,1.6s-1.2,0.5-1.9,0.5
		c-1.1,0-2-0.3-2.6-1c-0.6-0.6-1-1.5-1-2.6c0-0.4,0.1-1.2,0.3-2.2L59.7,25.1z"/>
	<path class="st0" d="M67.5,37.3l1.5-8.8h1.1L69.9,30c0.5-0.7,1-1.1,1.4-1.4c0.4-0.3,0.8-0.4,1.2-0.4c0.6,0,1,0.2,1.4,0.6
		c0.3,0.4,0.5,0.9,0.5,1.6c0,0.3-0.1,0.8-0.2,1.5l-1,5.3h-1.2l1-5.6c0.1-0.5,0.1-1,0.1-1.2c0-0.3-0.1-0.5-0.3-0.7
		c-0.2-0.2-0.4-0.3-0.7-0.3c-0.6,0-1.2,0.3-1.7,0.8s-0.9,1.5-1.1,2.9l-0.7,4.1H67.5z"/>
	<path class="st0" d="M80.1,36.2c-0.5,0.5-0.9,0.8-1.3,1c-0.4,0.2-0.8,0.3-1.2,0.3c-0.6,0-1.2-0.2-1.6-0.7c-0.4-0.5-0.6-1.1-0.6-1.9
		c0-0.6,0.1-1.1,0.4-1.5c0.2-0.4,0.6-0.7,1-1c0.4-0.2,1.1-0.4,1.9-0.4c0.7,0,1.2-0.1,1.5-0.1s0.5-0.1,0.7-0.2c0.1-0.4,0.2-0.8,0.2-1
		c0-0.4-0.1-0.7-0.4-0.9c-0.3-0.2-0.7-0.3-1.2-0.3c-1.1,0-1.8,0.5-2.1,1.6L76.1,31c0.5-1.8,1.7-2.7,3.4-2.7c0.9,0,1.5,0.2,2,0.7
		c0.5,0.4,0.7,1,0.7,1.7c0,0.5-0.1,1-0.2,1.6l-0.5,2.2c-0.2,0.7-0.2,1.3-0.2,1.7c0,0.3,0,0.7,0.1,1.2h-1.3
		C80.2,37,80.2,36.6,80.1,36.2z M80.7,32.8c-0.3,0.1-0.8,0.3-1.6,0.3c-0.8,0.1-1.3,0.2-1.6,0.3S77,33.7,76.9,34
		c-0.2,0.2-0.2,0.5-0.2,0.9c0,0.4,0.1,0.8,0.4,1.1c0.3,0.3,0.6,0.4,1,0.4c0.4,0,0.8-0.1,1.1-0.4c0.4-0.2,0.7-0.6,0.9-1.1
		C80.3,34.4,80.5,33.7,80.7,32.8z"/>
	<path class="st0" d="M86.9,37.3l1.5-8.8h1.2l-0.2,1.5c0.5-0.7,0.9-1.1,1.3-1.3c0.4-0.2,0.8-0.3,1.2-0.3c0.4,0,0.8,0.1,1.1,0.4
		c0.3,0.3,0.5,0.7,0.6,1.2c0.4-0.6,0.8-1,1.2-1.2c0.4-0.3,0.8-0.4,1.3-0.4c0.6,0,1,0.2,1.3,0.5c0.3,0.3,0.5,0.8,0.5,1.5
		c0,0.3-0.1,0.7-0.2,1.4l-1,5.7h-1.2l1-5.8c0.1-0.5,0.1-0.8,0.1-1c0-0.3-0.1-0.5-0.2-0.7c-0.2-0.2-0.4-0.2-0.6-0.2
		c-0.3,0-0.7,0.1-1.1,0.4s-0.7,0.6-0.9,1c-0.2,0.4-0.4,1.1-0.6,2.1l-0.8,4.3h-1.2l1.1-6c0.1-0.4,0.1-0.7,0.1-0.9
		c0-0.3-0.1-0.5-0.2-0.7s-0.3-0.3-0.6-0.3c-0.6,0-1.1,0.3-1.6,0.8c-0.5,0.6-0.9,1.5-1.1,2.8l-0.7,4.2H86.9z"/>
	<path class="st0" d="M103.4,36.2c-0.5,0.5-0.9,0.8-1.3,1c-0.4,0.2-0.8,0.3-1.2,0.3c-0.6,0-1.2-0.2-1.6-0.7
		c-0.4-0.5-0.6-1.1-0.6-1.9c0-0.6,0.1-1.1,0.4-1.5c0.2-0.4,0.6-0.7,1-1c0.4-0.2,1.1-0.4,1.9-0.4c0.7,0,1.2-0.1,1.5-0.1
		s0.5-0.1,0.7-0.2c0.1-0.4,0.2-0.8,0.2-1c0-0.4-0.1-0.7-0.4-0.9c-0.3-0.2-0.7-0.3-1.2-0.3c-1.1,0-1.8,0.5-2.1,1.6L99.4,31
		c0.5-1.8,1.7-2.7,3.4-2.7c0.9,0,1.5,0.2,2,0.7c0.5,0.4,0.7,1,0.7,1.7c0,0.5-0.1,1-0.2,1.6l-0.5,2.2c-0.2,0.7-0.2,1.3-0.2,1.7
		c0,0.3,0,0.7,0.1,1.2h-1.3C103.4,37,103.4,36.6,103.4,36.2z M103.9,32.8c-0.3,0.1-0.8,0.3-1.6,0.3c-0.8,0.1-1.3,0.2-1.6,0.3
		s-0.5,0.3-0.7,0.6c-0.2,0.2-0.2,0.5-0.2,0.9c0,0.4,0.1,0.8,0.4,1.1c0.3,0.3,0.6,0.4,1,0.4c0.4,0,0.8-0.1,1.1-0.4
		c0.4-0.2,0.7-0.6,0.9-1.1C103.5,34.4,103.7,33.7,103.9,32.8z"/>
	<path class="st0" d="M106.2,37.3l1.5-8.8h1.1l-0.3,1.5c0.5-0.7,1-1.1,1.4-1.4c0.4-0.3,0.8-0.4,1.2-0.4c0.6,0,1,0.2,1.4,0.6
		c0.3,0.4,0.5,0.9,0.5,1.6c0,0.3-0.1,0.8-0.2,1.5l-1,5.3h-1.2l1-5.6c0.1-0.5,0.1-1,0.1-1.2c0-0.3-0.1-0.5-0.3-0.7
		c-0.2-0.2-0.4-0.3-0.7-0.3c-0.6,0-1.2,0.3-1.7,0.8s-0.9,1.5-1.1,2.9l-0.7,4.1H106.2z"/>
	<path class="st0" d="M119.3,34.3l1.2,0.1c-0.2,0.9-0.7,1.6-1.4,2.2c-0.6,0.5-1.3,0.8-2,0.8c-0.5,0-1-0.1-1.4-0.4s-0.8-0.7-1-1.3
		s-0.4-1.2-0.4-2c0-1,0.2-2,0.6-2.9c0.4-0.9,0.9-1.6,1.4-2s1.2-0.6,1.8-0.6c0.8,0,1.5,0.3,2,1c0.5,0.6,0.8,1.5,0.8,2.7
		c0,0.4,0,0.9-0.1,1.3h-5.3c0,0.2,0,0.3,0,0.5c0,0.8,0.2,1.5,0.5,1.9s0.7,0.6,1.1,0.6c0.4,0,0.8-0.2,1.2-0.5
		C118.8,35.4,119.1,34.9,119.3,34.3z M115.7,32.1h4.1v-0.3c0-0.8-0.2-1.4-0.5-1.8c-0.3-0.4-0.7-0.6-1.2-0.6c-0.5,0-1,0.2-1.4,0.7
		S115.9,31.2,115.7,32.1z"/>
	<path class="st0" d="M121.8,37.3l1.5-8.8h1.1l-0.3,1.8c0.7-1.3,1.4-2,2.2-2c0.2,0,0.6,0.1,0.9,0.3l-0.5,1.4
		c-0.2-0.2-0.4-0.3-0.7-0.3c-0.5,0-0.9,0.3-1.4,0.9c-0.4,0.6-0.8,1.6-1.1,3.2l-0.6,3.5H121.8z"/>
	<path class="st0" d="M131.3,36.2c-0.5,0.5-0.9,0.8-1.3,1c-0.4,0.2-0.8,0.3-1.2,0.3c-0.6,0-1.2-0.2-1.6-0.7
		c-0.4-0.5-0.6-1.1-0.6-1.9c0-0.6,0.1-1.1,0.4-1.5c0.2-0.4,0.6-0.7,1-1c0.4-0.2,1.1-0.4,1.9-0.4c0.7,0,1.2-0.1,1.5-0.1
		s0.5-0.1,0.7-0.2c0.1-0.4,0.2-0.8,0.2-1c0-0.4-0.1-0.7-0.4-0.9c-0.3-0.2-0.7-0.3-1.2-0.3c-1.1,0-1.8,0.5-2.1,1.6l-1.2-0.1
		c0.5-1.8,1.7-2.7,3.4-2.7c0.9,0,1.5,0.2,2,0.7c0.5,0.4,0.7,1,0.7,1.7c0,0.5-0.1,1-0.2,1.6l-0.5,2.2c-0.2,0.7-0.2,1.3-0.2,1.7
		c0,0.3,0,0.7,0.1,1.2h-1.3C131.3,37,131.3,36.6,131.3,36.2z M131.8,32.8c-0.3,0.1-0.8,0.3-1.6,0.3c-0.8,0.1-1.3,0.2-1.6,0.3
		s-0.5,0.3-0.7,0.6c-0.2,0.2-0.2,0.5-0.2,0.9c0,0.4,0.1,0.8,0.4,1.1c0.3,0.3,0.6,0.4,1,0.4c0.4,0,0.8-0.1,1.1-0.4
		c0.4-0.2,0.7-0.6,0.9-1.1C131.4,34.4,131.6,33.7,131.8,32.8z"/>
	<path class="st0" d="M142.9,36c-0.7,1-1.4,1.5-2.2,1.5c-0.7,0-1.2-0.3-1.7-0.9c-0.5-0.6-0.7-1.5-0.7-2.7c0-1.1,0.2-2.1,0.6-3
		c0.4-0.9,0.8-1.6,1.4-2c0.5-0.4,1.1-0.6,1.6-0.6c0.9,0,1.6,0.5,2,1.6l0.9-4.7h1.2l-2.2,12.2h-1.1L142.9,36z M139.5,33.6l0,0.4
		c0,0.7,0.2,1.3,0.5,1.8c0.3,0.4,0.6,0.5,1,0.5c0.6,0,1.1-0.4,1.5-1.1c0.6-0.9,0.9-2.1,0.9-3.5c0-0.7-0.2-1.3-0.5-1.6
		c-0.3-0.4-0.7-0.6-1.1-0.6c-0.4,0-0.8,0.2-1.2,0.6s-0.7,0.9-0.9,1.7C139.6,32.5,139.5,33.1,139.5,33.6z"/>
	<path class="st0" d="M151.1,34.3l1.2,0.1c-0.2,0.9-0.7,1.6-1.4,2.2c-0.6,0.5-1.3,0.8-2,0.8c-0.5,0-1-0.1-1.4-0.4s-0.8-0.7-1-1.3
		s-0.4-1.2-0.4-2c0-1,0.2-2,0.6-2.9c0.4-0.9,0.9-1.6,1.4-2s1.2-0.6,1.8-0.6c0.8,0,1.5,0.3,2,1c0.5,0.6,0.8,1.5,0.8,2.7
		c0,0.4,0,0.9-0.1,1.3h-5.3c0,0.2,0,0.3,0,0.5c0,0.8,0.2,1.5,0.5,1.9s0.7,0.6,1.1,0.6c0.4,0,0.8-0.2,1.2-0.5
		C150.5,35.4,150.9,34.9,151.1,34.3z M147.5,32.1h4.1v-0.3c0-0.8-0.2-1.4-0.5-1.8c-0.3-0.4-0.7-0.6-1.2-0.6c-0.5,0-1,0.2-1.4,0.7
		S147.7,31.2,147.5,32.1z"/>
	<path class="st0" d="M157.4,37.3l2.1-12.2h1.2l-0.8,4.7c0.5-0.6,0.9-1,1.3-1.2c0.4-0.2,0.8-0.3,1.2-0.3c0.6,0,1,0.2,1.4,0.6
		c0.3,0.4,0.5,0.9,0.5,1.5c0,0.3-0.1,0.9-0.2,1.7l-0.9,5.2H162l1-5.3c0.1-0.8,0.2-1.3,0.2-1.5c0-0.3-0.1-0.5-0.3-0.7
		c-0.2-0.2-0.4-0.3-0.7-0.3c-0.4,0-0.8,0.1-1.2,0.4c-0.4,0.3-0.7,0.6-1,1.1c-0.2,0.5-0.5,1.3-0.7,2.5l-0.7,3.8H157.4z"/>
	<path class="st0" d="M170,36.2c-0.5,0.5-0.9,0.8-1.3,1c-0.4,0.2-0.8,0.3-1.2,0.3c-0.6,0-1.2-0.2-1.6-0.7c-0.4-0.5-0.6-1.1-0.6-1.9
		c0-0.6,0.1-1.1,0.4-1.5c0.2-0.4,0.6-0.7,1-1c0.5-0.2,1.1-0.4,1.9-0.4c0.7,0,1.2-0.1,1.5-0.1s0.5-0.1,0.7-0.2c0.1-0.4,0.2-0.8,0.2-1
		c0-0.4-0.1-0.7-0.4-0.9c-0.3-0.2-0.7-0.3-1.2-0.3c-1.1,0-1.8,0.5-2.1,1.6L166,31c0.5-1.8,1.7-2.7,3.4-2.7c0.9,0,1.5,0.2,2,0.7
		s0.7,1,0.7,1.7c0,0.5-0.1,1-0.2,1.6l-0.5,2.2c-0.2,0.7-0.2,1.3-0.2,1.7c0,0.3,0,0.7,0.1,1.2h-1.3C170.1,37,170.1,36.6,170,36.2z
		 M170.6,32.8c-0.3,0.1-0.8,0.3-1.6,0.3c-0.8,0.1-1.3,0.2-1.6,0.3s-0.5,0.3-0.7,0.6c-0.2,0.2-0.2,0.5-0.2,0.9c0,0.4,0.1,0.8,0.4,1.1
		c0.3,0.3,0.6,0.4,1,0.4c0.4,0,0.8-0.1,1.1-0.4c0.4-0.2,0.7-0.6,0.9-1.1C170.2,34.4,170.4,33.7,170.6,32.8z"/>
	<path class="st0" d="M177.9,34.1l1.2,0.2c-0.3,1.1-0.8,1.9-1.3,2.5c-0.6,0.5-1.2,0.8-1.9,0.8c-0.8,0-1.4-0.3-1.9-0.9
		c-0.5-0.6-0.8-1.5-0.8-2.6c0-1.1,0.2-2.1,0.6-3.1s0.8-1.6,1.4-2c0.6-0.4,1.2-0.6,1.9-0.6c0.7,0,1.3,0.3,1.8,0.8
		c0.5,0.5,0.7,1.2,0.7,2.1l-1.2,0.1c0-0.6-0.1-1-0.4-1.3c-0.3-0.3-0.6-0.5-1-0.5c-0.4,0-0.8,0.1-1.2,0.4c-0.4,0.3-0.7,0.8-0.9,1.6
		s-0.4,1.7-0.4,2.6c0,0.7,0.1,1.2,0.4,1.6c0.3,0.4,0.6,0.6,1,0.6c0.4,0,0.8-0.2,1.2-0.6C177.4,35.4,177.7,34.8,177.9,34.1z"/>
	<path class="st0" d="M185.2,34.3l1.2,0.1c-0.2,0.9-0.7,1.6-1.4,2.2c-0.6,0.5-1.3,0.8-2,0.8c-0.5,0-1-0.1-1.4-0.4
		c-0.4-0.3-0.8-0.7-1-1.3c-0.3-0.6-0.4-1.2-0.4-2c0-1,0.2-2,0.6-2.9c0.4-0.9,0.9-1.6,1.4-2s1.2-0.6,1.8-0.6c0.8,0,1.5,0.3,2,1
		c0.5,0.6,0.8,1.5,0.8,2.7c0,0.4,0,0.9-0.1,1.3h-5.3c0,0.2,0,0.3,0,0.5c0,0.8,0.2,1.5,0.5,1.9s0.7,0.6,1.1,0.6
		c0.4,0,0.8-0.2,1.2-0.5C184.6,35.4,185,34.9,185.2,34.3z M181.6,32.1h4.1v-0.3c0-0.8-0.2-1.4-0.5-1.8c-0.3-0.4-0.7-0.6-1.2-0.6
		c-0.5,0-1,0.2-1.4,0.7C182.1,30.5,181.8,31.2,181.6,32.1z"/>
	<path class="st0" d="M187.7,37.3l1.5-8.8h1.1l-0.3,1.8c0.7-1.3,1.4-2,2.2-2c0.2,0,0.6,0.1,0.9,0.3l-0.5,1.4
		c-0.2-0.2-0.4-0.3-0.7-0.3c-0.5,0-0.9,0.3-1.4,0.9s-0.8,1.6-1.1,3.2l-0.6,3.5H187.7z"/>
	<path class="st0" d="M196.4,37.3l2.1-12.2h7.2l-0.2,1.4h-5.8l-0.7,3.8h5.7l-0.2,1.4h-5.7l-0.7,4.2h6.2l-0.2,1.4H196.4z"/>
	<path class="st0" d="M210.4,35.7c-0.9,1.2-1.8,1.8-2.7,1.8c-0.5,0-1-0.2-1.3-0.6s-0.5-0.9-0.5-1.5c0-0.4,0.1-1,0.2-1.9l0.9-5.1h1.2
		l-1,5.6c-0.1,0.5-0.1,0.8-0.1,1.1c0,0.3,0.1,0.6,0.3,0.8c0.2,0.2,0.4,0.3,0.7,0.3c0.4,0,0.9-0.2,1.3-0.5c0.4-0.4,0.8-0.8,1-1.3
		c0.2-0.5,0.4-1.2,0.5-2.1l0.7-3.8h1.2l-1.6,8.8h-1.1L210.4,35.7z"/>
	<path class="st0" d="M213.2,37.3l1.5-8.8h1.1l-0.3,1.8c0.7-1.3,1.4-2,2.2-2c0.2,0,0.6,0.1,0.9,0.3l-0.5,1.4
		c-0.2-0.2-0.4-0.3-0.7-0.3c-0.5,0-0.9,0.3-1.4,0.9s-0.8,1.6-1.1,3.2l-0.6,3.5H213.2z"/>
	<path class="st0" d="M218.1,33.9c0-1.6,0.4-2.9,1.1-4c0.7-1.1,1.7-1.6,2.9-1.6c0.8,0,1.5,0.3,2.1,1s0.8,1.6,0.8,2.8
		c0,1.1-0.2,2.1-0.6,2.9c-0.4,0.9-0.9,1.5-1.5,1.9s-1.2,0.6-1.9,0.6c-0.9,0-1.6-0.3-2.1-1C218.3,35.9,218.1,35,218.1,33.9z
		 M219.3,33.8c0,0.8,0.2,1.5,0.5,1.9c0.3,0.4,0.7,0.6,1.2,0.6c0.4,0,0.8-0.2,1.2-0.5c0.4-0.3,0.7-0.8,1-1.6c0.3-0.7,0.4-1.5,0.4-2.3
		c0-0.8-0.2-1.5-0.5-1.9s-0.7-0.7-1.2-0.7c-0.4,0-0.8,0.2-1.2,0.5c-0.4,0.3-0.7,0.8-1,1.6C219.4,32.2,219.3,33,219.3,33.8z"/>
	<path class="st0" d="M225,40.6l2.1-12.2h1.2l-0.2,1.2c0.4-0.6,0.8-0.9,1.1-1.1s0.7-0.3,1-0.3c0.7,0,1.2,0.3,1.7,0.9
		c0.5,0.6,0.7,1.5,0.7,2.6c0,1.1-0.2,2.1-0.6,3c-0.4,0.9-0.9,1.6-1.5,2.1c-0.5,0.4-1,0.6-1.5,0.6c-0.9,0-1.5-0.5-2-1.6l-0.8,4.8H225
		z M227.4,33.9c0,0.7,0.1,1.3,0.4,1.7c0.3,0.4,0.7,0.6,1.1,0.6c0.4,0,0.7-0.1,0.9-0.4c0.4-0.3,0.7-0.9,1-1.7
		c0.3-0.8,0.4-1.6,0.4-2.4c0-0.8-0.2-1.3-0.5-1.7c-0.3-0.4-0.7-0.6-1.1-0.6c-0.3,0-0.7,0.2-1,0.5c-0.4,0.3-0.7,0.8-0.9,1.6
		S227.4,33.1,227.4,33.9z"/>
	<path class="st0" d="M238.2,36.2c-0.5,0.5-0.9,0.8-1.3,1c-0.4,0.2-0.8,0.3-1.2,0.3c-0.6,0-1.2-0.2-1.6-0.7
		c-0.4-0.5-0.6-1.1-0.6-1.9c0-0.6,0.1-1.1,0.4-1.5c0.2-0.4,0.6-0.7,1-1c0.5-0.2,1.1-0.4,1.9-0.4c0.7,0,1.2-0.1,1.5-0.1
		s0.5-0.1,0.7-0.2c0.1-0.4,0.2-0.8,0.2-1c0-0.4-0.1-0.7-0.4-0.9c-0.3-0.2-0.7-0.3-1.2-0.3c-1.1,0-1.8,0.5-2.1,1.6l-1.2-0.1
		c0.5-1.8,1.7-2.7,3.4-2.7c0.9,0,1.5,0.2,2,0.7s0.7,1,0.7,1.7c0,0.5-0.1,1-0.2,1.6l-0.5,2.2c-0.2,0.7-0.2,1.3-0.2,1.7
		c0,0.3,0,0.7,0.1,1.2h-1.3C238.3,37,238.2,36.6,238.2,36.2z M238.8,32.8c-0.3,0.1-0.8,0.3-1.6,0.3c-0.8,0.1-1.3,0.2-1.6,0.3
		s-0.5,0.3-0.7,0.6c-0.2,0.2-0.2,0.5-0.2,0.9c0,0.4,0.1,0.8,0.4,1.1c0.3,0.3,0.6,0.4,1,0.4c0.4,0,0.8-0.1,1.1-0.4
		c0.4-0.2,0.7-0.6,0.9-1.1C238.4,34.4,238.6,33.7,238.8,32.8z"/>
	<path class="st0" d="M242.5,26.8l0.3-1.7h1.4l-0.2,1.5c-0.3,1.6-0.9,2.5-1.9,2.7l0.1-0.7c0.5-0.2,0.9-0.8,1.1-1.8H242.5z
		 M244.8,26.8l0.3-1.7h1.4l-0.3,1.5c-0.3,1.6-0.9,2.5-1.9,2.7l0.1-0.7c0.5-0.2,0.9-0.8,1.1-1.8H244.8z"/>
</g>
</svg>
