<svg xmlns="http://www.w3.org/2000/svg" xmlns:xlink="http://www.w3.org/1999/xlink" width="475" height="472" viewBox="0 0 475 472">
  <defs>
    <clipPath id="clip-icon-webinar_HAKUROJO">
      <rect width="475" height="472"/>
    </clipPath>
  </defs>
  <g id="icon-webinar_HAKUROJO" clip-path="url(#clip-icon-webinar_HAKUROJO)">
    <g id="Grupo_5" data-name="Grupo 5" transform="translate(81.467 80.872)">
      <g id="Grupo_2" data-name="Grupo 2" transform="translate(0 0)">
        <g id="Grupo_1" data-name="Grupo 1">
          <path id="Trazado_1" data-name="Trazado 1" d="M298.308,162.151a19.988,19.988,0,0,1-.022-17.9c10.432-20.884,10.219-47.3-2.8-70.009-14.28-24.909-40.1-38.609-65.547-37.491a19.879,19.879,0,0,1-16.65-7.827C200.336,11.874,178.152.63,152.958.63c-25.252,0-47.479,11.3-60.42,28.414a19.946,19.946,0,0,1-16.672,7.884C50.492,35.9,24.783,49.6,10.546,74.43-2.511,97.206-2.687,123.712,7.84,144.625a19.988,19.988,0,0,1,.022,17.9c-10.432,20.884-10.219,47.3,2.8,70.009,14.28,24.909,40.1,38.609,65.547,37.491a19.879,19.879,0,0,1,16.65,7.827c12.954,17.053,35.138,28.3,60.332,28.3,25.252,0,47.479-11.3,60.42-28.414a19.946,19.946,0,0,1,16.672-7.884c25.375,1.027,51.084-12.667,65.322-37.5,13.057-22.775,13.232-49.282,2.706-70.195Z" transform="translate(-0.316 -0.63)" fill="#f8ead4"/>
        </g>
      </g>
      <g id="Grupo_3" data-name="Grupo 3" transform="translate(116.376 19.652)">
        <path id="Trazado_2" data-name="Trazado 2" d="M199.64,42.718,204.7,43.79l-5.849,1.659a8.7,8.7,0,0,0-6.123,6.494l-1.084,4.9-1.084-4.9a8.7,8.7,0,0,0-6.123-6.494l-5.849-1.659,5.057-1.072a8.7,8.7,0,0,0,6.652-6.456l1.347-5.529,1.347,5.529a8.7,8.7,0,0,0,6.652,6.456Z" transform="translate(-178.585 -30.733)" fill="#ffb9b3"/>
      </g>
      <g id="Grupo_4" data-name="Grupo 4" transform="translate(5.913 192.867)">
        <circle id="Elipse_1" data-name="Elipse 1" cx="4.57" cy="4.57" r="4.57" fill="#c8eef8"/>
      </g>
    </g>
    <g id="Grupo_56" data-name="Grupo 56" transform="translate(84.606 83.725)">
      <g id="Grupo_9" data-name="Grupo 9" transform="translate(0 0)">
        <g id="Grupo_6" data-name="Grupo 6">
          <path id="Trazado_3" data-name="Trazado 3" d="M64.659,23.424a20.528,20.528,0,0,0-40.839,0,20.194,20.194,0,0,0,1.808,40.329H62.85a20.194,20.194,0,0,0,1.809-40.329Z" transform="translate(-5.124 -5)" fill="#d5e3f5"/>
        </g>
        <g id="Grupo_7" data-name="Grupo 7" transform="translate(0 0)">
          <path id="Trazado_4" data-name="Trazado 4" d="M25.628,53.961a10.4,10.4,0,0,1-.967-20.781,9.792,9.792,0,0,0,8.913-8.891,10.652,10.652,0,0,1,10.666-9.5h5.645a4.147,4.147,0,0,0,4.147-4.147v-.507a4.141,4.141,0,0,0-2.716-3.9A20.677,20.677,0,0,0,44.239,5a20.387,20.387,0,0,0-20.42,18.424,20.194,20.194,0,0,0,1.808,40.329h4.9a4.9,4.9,0,1,0,0-9.792Z" transform="translate(-5.124 -5)" fill="#b1c4de"/>
        </g>
      </g>
      <g id="Grupo_55" data-name="Grupo 55" transform="translate(5.472 29.856)">
        <g id="Grupo_46" data-name="Grupo 46" transform="translate(0 26.765)">
          <g id="Grupo_43" data-name="Grupo 43">
            <g id="Grupo_10" data-name="Grupo 10" transform="translate(12.823)">
              <path id="Trazado_6" data-name="Trazado 6" d="M301.149,91.734H46.205A13.056,13.056,0,0,0,33.149,104.79V289.944h268V91.734Z" transform="translate(-33.149 -91.734)" fill="#f7f8f9"/>
            </g>
            <g id="Grupo_12" data-name="Grupo 12" transform="translate(12.823 0.065)">
              <g id="Grupo_11" data-name="Grupo 11">
                <path id="Trazado_7" data-name="Trazado 7" d="M33.149,104.586V289.979h11.54V91.833a12.82,12.82,0,0,0-11.54,12.753Z" transform="translate(-33.149 -91.833)" fill="#eaeaea"/>
              </g>
            </g>
            <g id="Grupo_13" data-name="Grupo 13" transform="translate(38.469 38.624)">
              <path id="Trazado_8" data-name="Trazado 8" d="M101.286,185.594a18.786,18.786,0,0,1,5.956-13.727L87.432,150.9a47.64,47.64,0,0,0,3.7,72.544l17.378-23.029a18.818,18.818,0,0,1-7.228-14.821Z" transform="translate(-72.434 -150.9)" fill="#f3c55c"/>
            </g>
            <g id="Grupo_15" data-name="Grupo 15" transform="translate(38.469 38.624)">
              <g id="Grupo_14" data-name="Grupo 14">
                <path id="Trazado_9" data-name="Trazado 9" d="M72.434,185.594a47.591,47.591,0,0,0,18.7,37.849l17.378-23.029a18.944,18.944,0,0,1-5.965-8.058L90.038,208.935a38.055,38.055,0,0,1,3.991-51.041l.007-.006-6.6-6.988a47.524,47.524,0,0,0-15,34.694Z" transform="translate(-72.434 -150.9)" fill="#fada8f"/>
              </g>
            </g>
            <g id="Grupo_16" data-name="Grupo 16" transform="translate(53.467 25.635)">
              <path id="Trazado_10" data-name="Trazado 10" d="M128.115,131a47.54,47.54,0,0,0-32.707,12.989l19.811,20.967a18.84,18.84,0,0,1,31.749,13.727h28.852A47.694,47.694,0,0,0,128.115,131Z" transform="translate(-95.408 -131.002)" fill="#ff7f40"/>
            </g>
            <g id="Grupo_18" data-name="Grupo 18" transform="translate(53.467 25.635)">
              <g id="Grupo_17" data-name="Grupo 17">
                <path id="Trazado_11" data-name="Trazado 11" d="M128.115,131a47.54,47.54,0,0,0-32.707,12.989l19.811,20.967a18.838,18.838,0,0,1,8.818-4.667l-14.186-15.014A38.09,38.09,0,0,1,166.2,178.685h9.617A47.694,47.694,0,0,0,128.115,131Z" transform="translate(-95.408 -131.002)" fill="#ffa77c"/>
              </g>
            </g>
            <g id="Grupo_19" data-name="Grupo 19" transform="translate(57.172 73.317)">
              <path id="Trazado_12" data-name="Trazado 12" d="M130.086,222.889a18.76,18.76,0,0,1-11.624-4.025l-17.378,23.029a47.7,47.7,0,0,0,76.706-37.849H148.938A18.87,18.87,0,0,1,130.086,222.889Z" transform="translate(-101.084 -204.044)" fill="#55bdf0"/>
            </g>
            <g id="Grupo_21" data-name="Grupo 21" transform="translate(57.173 73.318)">
              <g id="Grupo_20" data-name="Grupo 20">
                <path id="Trazado_13" data-name="Trazado 13" d="M130.086,251.728a47.694,47.694,0,0,0,47.7-47.683H148.939a18.717,18.717,0,0,1-2.646,9.613h20.651a38.154,38.154,0,0,1-36.857,28.457,37.727,37.727,0,0,1-23.149-7.849l-.061-.047-5.791,7.674A47.5,47.5,0,0,0,130.086,251.728Z" transform="translate(-101.085 -204.045)" fill="#91ceec"/>
              </g>
            </g>
            <g id="Grupo_22" data-name="Grupo 22" transform="translate(67.321 54.473)">
              <path id="Trazado_14" data-name="Trazado 14" d="M135.484,212.866a18.845,18.845,0,1,1,18.853-18.845A18.87,18.87,0,0,1,135.484,212.866Z" transform="translate(-116.631 -175.177)" fill="#efefef"/>
            </g>
            <g id="Grupo_24" data-name="Grupo 24" transform="translate(67.321 54.473)">
              <g id="Grupo_23" data-name="Grupo 23">
                <path id="Trazado_15" data-name="Trazado 15" d="M127.53,194.023a18.877,18.877,0,0,1,13.4-18.039,18.844,18.844,0,1,0,0,36.078,18.879,18.879,0,0,1-13.4-18.039Z" transform="translate(-116.631 -175.178)" fill="#fff"/>
              </g>
            </g>
            <g id="Grupo_40" data-name="Grupo 40" transform="translate(178.617 82.854)">
              <g id="Grupo_25" data-name="Grupo 25">
                <path id="Trazado_16" data-name="Trazado 16" d="M287.117,218.653H389.323V334.009H287.117Z" transform="translate(-287.117 -218.653)" fill="#fff7dc"/>
              </g>
              <g id="Grupo_27" data-name="Grupo 27">
                <g id="Grupo_26" data-name="Grupo 26">
                  <path id="Trazado_17" data-name="Trazado 17" d="M389.324,228.907V218.653H287.117V334.009h10.258v-105.1Z" transform="translate(-287.117 -218.653)" fill="#fffdf8"/>
                </g>
              </g>
              <g id="Grupo_39" data-name="Grupo 39" transform="translate(12.85 16.915)">
                <g id="Grupo_32" data-name="Grupo 32" transform="translate(0 58.25)">
                  <path id="Trazado_18" data-name="Trazado 18" d="M347.139,333.792h23.84v32.759h-23.84Z" transform="translate(-320.806 -333.792)" fill="#fcdeca"/>
                  <g id="Grupo_29" data-name="Grupo 29" transform="translate(0 18.977)">
                    <g id="Grupo_28" data-name="Grupo 28">
                      <path id="Trazado_19" data-name="Trazado 19" d="M356.974,362.862h0c-2.963,12.712-20.872,12.711-23.834,0h-.005A27.081,27.081,0,0,0,306.8,384.076h76.508A27.081,27.081,0,0,0,356.974,362.862Z" transform="translate(-306.801 -362.862)" fill="#ff8a80"/>
                    </g>
                  </g>
                  <g id="Grupo_31" data-name="Grupo 31" transform="translate(0 18.977)">
                    <g id="Grupo_30" data-name="Grupo 30">
                      <path id="Trazado_20" data-name="Trazado 20" d="M333.14,362.862h-.005A27.081,27.081,0,0,0,306.8,384.076h10.01a17.3,17.3,0,0,1,16.324-11.6h9.623v-.3a11.9,11.9,0,0,1-9.618-9.318Z" transform="translate(-306.801 -362.862)" fill="#ffa8a4"/>
                    </g>
                  </g>
                </g>
                <g id="Grupo_38" data-name="Grupo 38" transform="translate(7.578)">
                  <path id="Trazado_21" data-name="Trazado 21" d="M335.777,272.607v29.6a19.639,19.639,0,0,0,39.274-.067V272.607Z" transform="translate(-324.439 -254.3)" fill="#fcdeca"/>
                  <g id="Grupo_33" data-name="Grupo 33" transform="translate(0.001)">
                    <path id="Trazado_22" data-name="Trazado 22" d="M365.465,254.261a9.135,9.135,0,0,0-9.15-9.12s-38.8-7.654-37.889,32.761c.338,14.938,11.292,14.936,11.292,14.936V275.668a18.5,18.5,0,0,0,15.379-8.305l1.989-3.011,1.744,2.028a26.66,26.66,0,0,0,20.22,9.287v16.716c4.587-.46,10.73-3.039,10.7-17.524,0,0,.849-20.21-14.287-20.6Z" transform="translate(-318.411 -244.563)" fill="#989ca3"/>
                  </g>
                  <g id="Grupo_35" data-name="Grupo 35" transform="translate(11.308 19.789)">
                    <g id="Grupo_34" data-name="Grupo 34">
                      <path id="Trazado_23" data-name="Trazado 23" d="M375.063,286.192a26.663,26.663,0,0,1-20.22-9.287l-1.744-2.028-1.989,3.011a18.5,18.5,0,0,1-15.379,8.305V295.8h.072a28.053,28.053,0,0,0,18.167-6.76,36.244,36.244,0,0,0,21.056,6.76h.037Z" transform="translate(-335.731 -274.877)" fill="#f9cdaf"/>
                    </g>
                  </g>
                  <g id="Grupo_37" data-name="Grupo 37">
                    <g id="Grupo_36" data-name="Grupo 36">
                      <path id="Trazado_24" data-name="Trazado 24" d="M328.04,277.685c-.2-8.976,1.878-15.384,6.184-19.046,6.186-5.26,16.709-4.717,20.263-4.061l9.4,1.854,1.034-5.239a9.143,9.143,0,0,0-8.608-6.053s-38.8-7.654-37.889,32.761c.337,14.938,11.292,14.936,11.292,14.936v-9.763C328.268,282.255,328.066,278.81,328.04,277.685Z" transform="translate(-318.41 -244.563)" fill="#ccced1"/>
                    </g>
                  </g>
                </g>
              </g>
            </g>
            <g id="Grupo_41" data-name="Grupo 41" transform="translate(0 198.21)">
              <path id="Trazado_25" data-name="Trazado 25" d="M307.152,395.359H13.506v18.868A19.584,19.584,0,0,0,33.09,433.811H287.568a19.584,19.584,0,0,0,19.584-19.584Z" transform="translate(-13.506 -395.359)" fill="#55bdf0"/>
            </g>
            <g id="Grupo_42" data-name="Grupo 42" transform="translate(0 198.21)">
              <path id="Trazado_26" data-name="Trazado 26" d="M25.047,414.585V395.359H13.506v19.226A19.23,19.23,0,0,0,32.74,433.811h11.54a19.23,19.23,0,0,1-19.234-19.226Z" transform="translate(-13.506 -395.359)" fill="#91ceec"/>
            </g>
          </g>
          <g id="Grupo_44" data-name="Grupo 44" transform="translate(41.617 143.731)">
            <path id="Trazado_27" data-name="Trazado 27" d="M188.233,318.434H80.52a3.264,3.264,0,0,1,0-6.528H188.233a3.264,3.264,0,0,1,0,6.528Z" transform="translate(-77.256 -311.906)" fill="#5b5b7f"/>
          </g>
          <g id="Grupo_45" data-name="Grupo 45" transform="translate(41.617 169.366)">
            <path id="Trazado_28" data-name="Trazado 28" d="M162.587,357.7H80.52a3.264,3.264,0,0,1,0-6.528h82.067a3.264,3.264,0,1,1,0,6.528Z" transform="translate(-77.256 -351.174)" fill="#5b5b7f"/>
          </g>
        </g>
        <g id="Grupo_54" data-name="Grupo 54" transform="translate(153.517)">
          <g id="Grupo_48" data-name="Grupo 48" transform="translate(0)">
            <g id="Grupo_47" data-name="Grupo 47">
              <path id="Trazado_29" data-name="Trazado 29" d="M376.094,50.734h-114.6a12.82,12.82,0,0,0-12.823,12.817V77.589a12.82,12.82,0,0,0,12.82,12.817l11.1,0-.113,19.926,26.038-19.926,77.583,0a12.82,12.82,0,0,0,12.821-12.817V63.551a12.819,12.819,0,0,0-12.822-12.817Z" transform="translate(-248.668 -50.734)" fill="#f2517e"/>
            </g>
          </g>
          <g id="Grupo_50" data-name="Grupo 50" transform="translate(0 0)">
            <g id="Grupo_49" data-name="Grupo 49">
              <path id="Trazado_30" data-name="Trazado 30" d="M258.285,63.551a3.209,3.209,0,0,1,3.206-3.2h114.6a3.287,3.287,0,0,1,.387.023l9.551,1.125.615-5.216a12.805,12.805,0,0,0-10.554-5.546h-114.6a12.82,12.82,0,0,0-12.823,12.817V77.589a12.771,12.771,0,0,0,4.361,9.613h5.256V63.551Z" transform="translate(-248.668 -50.734)" fill="#f1a9bd"/>
            </g>
          </g>
          <g id="Grupo_53" data-name="Grupo 53" transform="translate(18.551 16.37)">
            <g id="Grupo_51" data-name="Grupo 51" transform="translate(37.115)">
              <path id="Trazado_31" data-name="Trazado 31" d="M396.707,82.338H337.2a3.264,3.264,0,1,1,0-6.528h59.5a3.264,3.264,0,0,1,0,6.528Z" transform="translate(-333.939 -75.81)" fill="#5b5b7f"/>
            </g>
            <g id="Grupo_52" data-name="Grupo 52">
              <path id="Trazado_32" data-name="Trazado 32" d="M293.522,82.338H280.349a3.264,3.264,0,1,1,0-6.528h13.173a3.264,3.264,0,1,1,0,6.528Z" transform="translate(-277.085 -75.81)" fill="#5b5b7f"/>
            </g>
          </g>
        </g>
      </g>
    </g>
    <g id="Grupo_58" data-name="Grupo 58" transform="translate(86.814 110.317)">
      <path id="Trazado_33" data-name="Trazado 33" d="M241.273,426.338H222.038a3.264,3.264,0,1,1,0-6.528h19.234a3.264,3.264,0,0,1,0,6.528Z" transform="translate(-81.509 -175.609)" fill="#5b5b7f"/>
      <path id="Trazado_34" data-name="Trazado 34" d="M295.857,91.624A16.109,16.109,0,0,0,308.8,75.853V61.815a16.1,16.1,0,0,0-16.087-16.081H178.11a16.1,16.1,0,0,0-16.087,16.081V72.5H37.65A16.339,16.339,0,0,0,21.33,88.82v181.89H11.771a3.264,3.264,0,0,0-3.264,3.264v18.868a22.874,22.874,0,0,0,22.848,22.848H285.832a22.874,22.874,0,0,0,22.848-22.848V273.973a3.264,3.264,0,0,0-3.264-3.264h-9.559ZM168.552,61.815a9.567,9.567,0,0,1,9.559-9.553h114.6a9.567,9.567,0,0,1,9.559,9.553V75.853a9.567,9.567,0,0,1-9.557,9.553l-77.583,0a3.267,3.267,0,0,0-1.984.672L192.4,101.961l.075-13.271a3.283,3.283,0,0,0-3.263-3.282l-11.1,0a9.568,9.568,0,0,1-9.557-9.553Zm-140.694,27a9.8,9.8,0,0,1,9.792-9.792H162.34a16.112,16.112,0,0,0,15.767,12.907h7.819l-.095,16.644a3.286,3.286,0,0,0,5.248,2.611l25.159-19.254,73.091,0v63.419H190.387a3.264,3.264,0,0,0-3.264,3.264V270.709H27.858ZM302.152,292.841a16.339,16.339,0,0,1-16.32,16.32H31.355a16.339,16.339,0,0,1-16.32-16.32v-15.6H302.152Zm-76.765-83.193a21.706,21.706,0,0,0,14.463-8.968,29.888,29.888,0,0,0,18.34,9.043l-.027,13.651a16.376,16.376,0,0,1-32.746.067Zm36.067-6.275c-7.813.095-14.858-4.021-19.488-10.179a3.264,3.264,0,0,0-5.2.328c-2.988,5.485-8.1,10.01-14.654,9.851a3.264,3.264,0,0,0-3.254,3.264v12.909c-2.159-1.272-4.616-4.166-4.765-10.749-.968-24.334,15.38-32.408,34.626-29.424a5.877,5.877,0,0,1,5.886,5.856,3.265,3.265,0,0,0,3.18,3.263c9.7-.924,11.693,15.163,11.106,17.342.016,8.3-2.043,11.7-4.173,13.142v-12.34a3.265,3.265,0,0,0-3.265-3.264Zm-11.309,41.081v7.87c-2.872,9.1-14.457,9.1-17.312-.022v-8.1a23.253,23.253,0,0,0,17.312.248Zm-8.654,21.1a15.212,15.212,0,0,0,14.247-9.422A23.6,23.6,0,0,1,275.3,270.709H207.679a23.6,23.6,0,0,1,19.568-14.573A15.211,15.211,0,0,0,241.492,265.558Zm40.747,5.151a30.123,30.123,0,0,0-25.565-21.034v-9.117a22.556,22.556,0,0,0,7.847-14.472c7.238-1.966,10.908-8.737,10.9-20.2.873-4.068-2.72-22.764-14.65-23.638a12.43,12.43,0,0,0-11.732-9.4c-19.205-3.219-42.637,5.179-41.47,36.1.266,11.766,6.6,16.425,11.567,17.719a22.559,22.559,0,0,0,7.171,13.361v9.65a30.121,30.121,0,0,0-25.564,21.034h-7.091V161.882h95.677V270.709Z" transform="translate(-8.507 -45.734)" fill="#5b5b7f"/>
    </g>
    <path id="Trazado_35" data-name="Trazado 35" d="M118.4,126c-27.353-.534-51.572,23.565-50.968,50.947-.582,27.4,23.57,51.483,50.968,50.947A50.947,50.947,0,1,0,118.4,126Zm0,6.528a44.491,44.491,0,0,1,44.322,41.155H140.273c-1.823-15.66-21.634-24.385-34.472-14.9L90.389,142.47a44.242,44.242,0,0,1,28.009-9.946Zm15.666,44.419A15.667,15.667,0,1,1,118.4,161.276,15.667,15.667,0,0,1,134.063,176.944Zm-60.106,0a43.921,43.921,0,0,1,11.679-30l15.412,16.312a22.174,22.174,0,0,0-4.767,13.687,21.943,21.943,0,0,0,6.1,15.228L88.842,210.108a44.067,44.067,0,0,1-14.885-33.164ZM118.4,221.363a43.984,43.984,0,0,1-24.376-7.281l13.5-17.891c12.967,7.805,30.986-1.164,32.752-15.983h22.446A44.49,44.49,0,0,1,118.4,221.363Z" transform="translate(57.854 36.719)" fill="#5b5b7f"/>
  </g>
</svg>
